<svg width="263" height="178" viewBox="0 0 263 178" fill="none" xmlns="http://www.w3.org/2000/svg">
<rect width="50" height="50" rx="19" fill="#7752BE"/>
<path d="M30.886 27.5982L21.7431 18.4554C21.636 18.3393 21.4931 18.2857 21.3413 18.2857C21.2699 18.2857 21.1895 18.3036 21.127 18.3304C20.9128 18.4196 20.7699 18.625 20.7699 18.8571V32.2857C20.7699 32.5179 20.9128 32.7232 21.127 32.8125C21.1895 32.8393 21.2699 32.8571 21.3413 32.8571C21.4931 32.8571 21.636 32.7946 21.7431 32.6875L24.5288 29.9018L26.2342 33.9375C26.3592 34.2232 26.6895 34.3661 26.9842 34.2411L28.5645 33.5714C28.8503 33.4464 28.9931 33.1161 28.8681 32.8214L27.0735 28.5714H30.4842C30.7163 28.5714 30.9217 28.4286 31.011 28.2143C31.1003 28.0089 31.0556 27.7589 30.886 27.5982Z" fill="white"/>
<g clip-path="url(#clip0_2_726)">
<path d="M11.5391 145H10.2266L7.92188 137.352C7.8125 137.013 7.6901 136.586 7.55469 136.07C7.41927 135.555 7.34896 135.245 7.34375 135.141C7.22917 135.828 7.04688 136.581 6.79688 137.398L4.5625 145H3.25L0.210938 133.578H1.61719L3.42188 140.633C3.67188 141.622 3.85417 142.518 3.96875 143.32C4.10938 142.367 4.31771 141.435 4.59375 140.523L6.64062 133.578H8.04688L10.1953 140.586C10.4453 141.393 10.6562 142.305 10.8281 143.32C10.9271 142.581 11.1146 141.68 11.3906 140.617L13.1875 133.578H14.5938L11.5391 145ZM22.0469 145V139.461C22.0469 138.763 21.888 138.242 21.5703 137.898C21.2526 137.555 20.7552 137.383 20.0781 137.383C19.1771 137.383 18.5182 137.628 18.1016 138.117C17.6901 138.607 17.4844 139.409 17.4844 140.523V145H16.1875V132.844H17.4844V136.523C17.4844 136.966 17.4635 137.333 17.4219 137.625H17.5C17.7552 137.214 18.1172 136.891 18.5859 136.656C19.0599 136.417 19.599 136.297 20.2031 136.297C21.25 136.297 22.0339 136.547 22.5547 137.047C23.0807 137.542 23.3438 138.331 23.3438 139.414V145H22.0469ZM27.3125 145H26.0156V136.438H27.3125V145ZM25.9062 134.117C25.9062 133.82 25.9792 133.604 26.125 133.469C26.2708 133.328 26.4531 133.258 26.6719 133.258C26.8802 133.258 27.0599 133.328 27.2109 133.469C27.362 133.609 27.4375 133.826 27.4375 134.117C27.4375 134.409 27.362 134.628 27.2109 134.773C27.0599 134.914 26.8802 134.984 26.6719 134.984C26.4531 134.984 26.2708 134.914 26.125 134.773C25.9792 134.628 25.9062 134.409 25.9062 134.117ZM31.3594 145H30.0625V132.844H31.3594V145ZM37.7266 145.156C36.4609 145.156 35.4609 144.771 34.7266 144C33.9974 143.229 33.6328 142.159 33.6328 140.789C33.6328 139.409 33.9714 138.312 34.6484 137.5C35.3307 136.688 36.2448 136.281 37.3906 136.281C38.4635 136.281 39.3125 136.635 39.9375 137.344C40.5625 138.047 40.875 138.977 40.875 140.133V140.953H34.9766C35.0026 141.958 35.2552 142.721 35.7344 143.242C36.2188 143.763 36.8984 144.023 37.7734 144.023C38.6953 144.023 39.6068 143.831 40.5078 143.445V144.602C40.0495 144.799 39.6146 144.94 39.2031 145.023C38.7969 145.112 38.3047 145.156 37.7266 145.156ZM37.375 137.367C36.6875 137.367 36.138 137.591 35.7266 138.039C35.3203 138.487 35.0807 139.107 35.0078 139.898H39.4844C39.4844 139.081 39.3021 138.456 38.9375 138.023C38.5729 137.586 38.0521 137.367 37.375 137.367ZM58.1641 145V139.43C58.1641 138.747 58.0182 138.237 57.7266 137.898C57.4349 137.555 56.9818 137.383 56.3672 137.383C55.5599 137.383 54.9635 137.615 54.5781 138.078C54.1927 138.542 54 139.255 54 140.219V145H52.7031V139.43C52.7031 138.747 52.5573 138.237 52.2656 137.898C51.974 137.555 51.5182 137.383 50.8984 137.383C50.0859 137.383 49.4896 137.628 49.1094 138.117C48.7344 138.602 48.5469 139.398 48.5469 140.508V145H47.25V136.438H48.3047L48.5156 137.609H48.5781C48.8229 137.193 49.1667 136.867 49.6094 136.633C50.0573 136.398 50.5573 136.281 51.1094 136.281C52.4479 136.281 53.3229 136.766 53.7344 137.734H53.7969C54.0521 137.286 54.4219 136.932 54.9062 136.672C55.3906 136.411 55.9427 136.281 56.5625 136.281C57.5312 136.281 58.2552 136.531 58.7344 137.031C59.2188 137.526 59.4609 138.32 59.4609 139.414V145H58.1641ZM69.5312 140.711C69.5312 142.107 69.1797 143.198 68.4766 143.984C67.7734 144.766 66.8021 145.156 65.5625 145.156C64.7969 145.156 64.1172 144.977 63.5234 144.617C62.9297 144.258 62.4714 143.742 62.1484 143.07C61.8255 142.398 61.6641 141.612 61.6641 140.711C61.6641 139.315 62.013 138.229 62.7109 137.453C63.4089 136.672 64.3776 136.281 65.6172 136.281C66.8151 136.281 67.7656 136.68 68.4688 137.477C69.1771 138.273 69.5312 139.352 69.5312 140.711ZM63.0078 140.711C63.0078 141.805 63.2266 142.638 63.6641 143.211C64.1016 143.784 64.7448 144.07 65.5938 144.07C66.4427 144.07 67.0859 143.786 67.5234 143.219C67.9661 142.646 68.1875 141.81 68.1875 140.711C68.1875 139.622 67.9661 138.797 67.5234 138.234C67.0859 137.667 66.4375 137.383 65.5781 137.383C64.7292 137.383 64.0885 137.661 63.6562 138.219C63.224 138.776 63.0078 139.607 63.0078 140.711ZM77.3359 142.664C77.3359 143.461 77.0391 144.076 76.4453 144.508C75.8516 144.94 75.0182 145.156 73.9453 145.156C72.8099 145.156 71.9245 144.977 71.2891 144.617V143.414C71.7005 143.622 72.1406 143.786 72.6094 143.906C73.0833 144.026 73.5391 144.086 73.9766 144.086C74.6536 144.086 75.1745 143.979 75.5391 143.766C75.9036 143.547 76.0859 143.216 76.0859 142.773C76.0859 142.44 75.9401 142.156 75.6484 141.922C75.362 141.682 74.7995 141.401 73.9609 141.078C73.1641 140.781 72.5964 140.523 72.2578 140.305C71.9245 140.081 71.6745 139.828 71.5078 139.547C71.3464 139.266 71.2656 138.93 71.2656 138.539C71.2656 137.841 71.5495 137.292 72.1172 136.891C72.6849 136.484 73.4635 136.281 74.4531 136.281C75.375 136.281 76.276 136.469 77.1562 136.844L76.6953 137.898C75.8359 137.544 75.0573 137.367 74.3594 137.367C73.7448 137.367 73.2812 137.464 72.9688 137.656C72.6562 137.849 72.5 138.115 72.5 138.453C72.5 138.682 72.5573 138.878 72.6719 139.039C72.7917 139.201 72.9818 139.354 73.2422 139.5C73.5026 139.646 74.0026 139.857 74.7422 140.133C75.7578 140.503 76.4427 140.875 76.7969 141.25C77.1562 141.625 77.3359 142.096 77.3359 142.664ZM82.2188 144.086C82.4479 144.086 82.6693 144.07 82.8828 144.039C83.0964 144.003 83.2656 143.966 83.3906 143.93V144.922C83.25 144.99 83.0417 145.044 82.7656 145.086C82.4948 145.133 82.25 145.156 82.0312 145.156C80.375 145.156 79.5469 144.284 79.5469 142.539V137.445H78.3203V136.82L79.5469 136.281L80.0938 134.453H80.8438V136.438H83.3281V137.445H80.8438V142.484C80.8438 143 80.9661 143.396 81.2109 143.672C81.4557 143.948 81.7917 144.086 82.2188 144.086ZM93.25 145.156C92.6927 145.156 92.1823 145.055 91.7188 144.852C91.2604 144.643 90.875 144.326 90.5625 143.898H90.4688C90.5312 144.398 90.5625 144.872 90.5625 145.32V148.844H89.2656V136.438H90.3203L90.5 137.609H90.5625C90.8958 137.141 91.2839 136.802 91.7266 136.594C92.1693 136.385 92.6771 136.281 93.25 136.281C94.3854 136.281 95.2604 136.669 95.875 137.445C96.4948 138.221 96.8047 139.31 96.8047 140.711C96.8047 142.117 96.4896 143.211 95.8594 143.992C95.2344 144.768 94.3646 145.156 93.25 145.156ZM93.0625 137.383C92.1875 137.383 91.5547 137.625 91.1641 138.109C90.7734 138.594 90.5729 139.365 90.5625 140.422V140.711C90.5625 141.914 90.763 142.776 91.1641 143.297C91.5651 143.812 92.2083 144.07 93.0938 144.07C93.8333 144.07 94.4115 143.771 94.8281 143.172C95.25 142.573 95.4609 141.747 95.4609 140.695C95.4609 139.628 95.25 138.81 94.8281 138.242C94.4115 137.669 93.8229 137.383 93.0625 137.383ZM102.695 145.156C101.43 145.156 100.43 144.771 99.6953 144C98.9661 143.229 98.6016 142.159 98.6016 140.789C98.6016 139.409 98.9401 138.312 99.6172 137.5C100.299 136.688 101.214 136.281 102.359 136.281C103.432 136.281 104.281 136.635 104.906 137.344C105.531 138.047 105.844 138.977 105.844 140.133V140.953H99.9453C99.9714 141.958 100.224 142.721 100.703 143.242C101.188 143.763 101.867 144.023 102.742 144.023C103.664 144.023 104.576 143.831 105.477 143.445V144.602C105.018 144.799 104.583 144.94 104.172 145.023C103.766 145.112 103.273 145.156 102.695 145.156ZM102.344 137.367C101.656 137.367 101.107 137.591 100.695 138.039C100.289 138.487 100.049 139.107 99.9766 139.898H104.453C104.453 139.081 104.271 138.456 103.906 138.023C103.542 137.586 103.021 137.367 102.344 137.367ZM115.453 140.711C115.453 142.107 115.102 143.198 114.398 143.984C113.695 144.766 112.724 145.156 111.484 145.156C110.719 145.156 110.039 144.977 109.445 144.617C108.852 144.258 108.393 143.742 108.07 143.07C107.747 142.398 107.586 141.612 107.586 140.711C107.586 139.315 107.935 138.229 108.633 137.453C109.331 136.672 110.299 136.281 111.539 136.281C112.737 136.281 113.688 136.68 114.391 137.477C115.099 138.273 115.453 139.352 115.453 140.711ZM108.93 140.711C108.93 141.805 109.148 142.638 109.586 143.211C110.023 143.784 110.667 144.07 111.516 144.07C112.365 144.07 113.008 143.786 113.445 143.219C113.888 142.646 114.109 141.81 114.109 140.711C114.109 139.622 113.888 138.797 113.445 138.234C113.008 137.667 112.359 137.383 111.5 137.383C110.651 137.383 110.01 137.661 109.578 138.219C109.146 138.776 108.93 139.607 108.93 140.711ZM121.719 145.156C121.161 145.156 120.651 145.055 120.188 144.852C119.729 144.643 119.344 144.326 119.031 143.898H118.938C119 144.398 119.031 144.872 119.031 145.32V148.844H117.734V136.438H118.789L118.969 137.609H119.031C119.365 137.141 119.753 136.802 120.195 136.594C120.638 136.385 121.146 136.281 121.719 136.281C122.854 136.281 123.729 136.669 124.344 137.445C124.964 138.221 125.273 139.31 125.273 140.711C125.273 142.117 124.958 143.211 124.328 143.992C123.703 144.768 122.833 145.156 121.719 145.156ZM121.531 137.383C120.656 137.383 120.023 137.625 119.633 138.109C119.242 138.594 119.042 139.365 119.031 140.422V140.711C119.031 141.914 119.232 142.776 119.633 143.297C120.034 143.812 120.677 144.07 121.562 144.07C122.302 144.07 122.88 143.771 123.297 143.172C123.719 142.573 123.93 141.747 123.93 140.695C123.93 139.628 123.719 138.81 123.297 138.242C122.88 137.669 122.292 137.383 121.531 137.383ZM128.844 145H127.547V132.844H128.844V145ZM135.211 145.156C133.945 145.156 132.945 144.771 132.211 144C131.482 143.229 131.117 142.159 131.117 140.789C131.117 139.409 131.456 138.312 132.133 137.5C132.815 136.688 133.729 136.281 134.875 136.281C135.948 136.281 136.797 136.635 137.422 137.344C138.047 138.047 138.359 138.977 138.359 140.133V140.953H132.461C132.487 141.958 132.74 142.721 133.219 143.242C133.703 143.763 134.383 144.023 135.258 144.023C136.18 144.023 137.091 143.831 137.992 143.445V144.602C137.534 144.799 137.099 144.94 136.688 145.023C136.281 145.112 135.789 145.156 135.211 145.156ZM134.859 137.367C134.172 137.367 133.622 137.591 133.211 138.039C132.805 138.487 132.565 139.107 132.492 139.898H136.969C136.969 139.081 136.786 138.456 136.422 138.023C136.057 137.586 135.536 137.367 134.859 137.367ZM148.352 145.156C147.086 145.156 146.086 144.771 145.352 144C144.622 143.229 144.258 142.159 144.258 140.789C144.258 139.409 144.596 138.312 145.273 137.5C145.956 136.688 146.87 136.281 148.016 136.281C149.089 136.281 149.938 136.635 150.562 137.344C151.188 138.047 151.5 138.977 151.5 140.133V140.953H145.602C145.628 141.958 145.88 142.721 146.359 143.242C146.844 143.763 147.523 144.023 148.398 144.023C149.32 144.023 150.232 143.831 151.133 143.445V144.602C150.674 144.799 150.24 144.94 149.828 145.023C149.422 145.112 148.93 145.156 148.352 145.156ZM148 137.367C147.312 137.367 146.763 137.591 146.352 138.039C145.945 138.487 145.706 139.107 145.633 139.898H150.109C150.109 139.081 149.927 138.456 149.562 138.023C149.198 137.586 148.677 137.367 148 137.367ZM159.578 145V139.461C159.578 138.763 159.419 138.242 159.102 137.898C158.784 137.555 158.286 137.383 157.609 137.383C156.714 137.383 156.057 137.625 155.641 138.109C155.224 138.594 155.016 139.393 155.016 140.508V145H153.719V136.438H154.773L154.984 137.609H155.047C155.312 137.188 155.685 136.862 156.164 136.633C156.643 136.398 157.177 136.281 157.766 136.281C158.797 136.281 159.573 136.531 160.094 137.031C160.615 137.526 160.875 138.32 160.875 139.414V145H159.578ZM162.508 148.844C162.013 148.844 161.612 148.779 161.305 148.648V147.594C161.664 147.698 162.018 147.75 162.367 147.75C162.773 147.75 163.07 147.638 163.258 147.414C163.451 147.195 163.547 146.859 163.547 146.406V136.438H164.844V146.312C164.844 148 164.065 148.844 162.508 148.844ZM163.438 134.117C163.438 133.82 163.51 133.604 163.656 133.469C163.802 133.328 163.984 133.258 164.203 133.258C164.411 133.258 164.591 133.328 164.742 133.469C164.893 133.609 164.969 133.826 164.969 134.117C164.969 134.409 164.893 134.628 164.742 134.773C164.591 134.914 164.411 134.984 164.203 134.984C163.984 134.984 163.802 134.914 163.656 134.773C163.51 134.628 163.438 134.409 163.438 134.117ZM174.984 140.711C174.984 142.107 174.633 143.198 173.93 143.984C173.227 144.766 172.255 145.156 171.016 145.156C170.25 145.156 169.57 144.977 168.977 144.617C168.383 144.258 167.924 143.742 167.602 143.07C167.279 142.398 167.117 141.612 167.117 140.711C167.117 139.315 167.466 138.229 168.164 137.453C168.862 136.672 169.831 136.281 171.07 136.281C172.268 136.281 173.219 136.68 173.922 137.477C174.63 138.273 174.984 139.352 174.984 140.711ZM168.461 140.711C168.461 141.805 168.68 142.638 169.117 143.211C169.555 143.784 170.198 144.07 171.047 144.07C171.896 144.07 172.539 143.786 172.977 143.219C173.419 142.646 173.641 141.81 173.641 140.711C173.641 139.622 173.419 138.797 172.977 138.234C172.539 137.667 171.891 137.383 171.031 137.383C170.182 137.383 169.542 137.661 169.109 138.219C168.677 138.776 168.461 139.607 168.461 140.711ZM175.906 136.438H177.297L179.172 141.32C179.583 142.435 179.839 143.24 179.938 143.734H180C180.068 143.469 180.208 143.016 180.422 142.375C180.641 141.729 181.349 139.75 182.547 136.438H183.938L180.258 146.188C179.893 147.151 179.466 147.833 178.977 148.234C178.492 148.641 177.896 148.844 177.188 148.844C176.792 148.844 176.401 148.799 176.016 148.711V147.672C176.302 147.734 176.622 147.766 176.977 147.766C177.867 147.766 178.503 147.266 178.883 146.266L179.359 145.047L175.906 136.438ZM4.79688 171.156C3.55729 171.156 2.59635 170.776 1.91406 170.016C1.23698 169.25 0.898438 168.169 0.898438 166.773C0.898438 165.341 1.24219 164.234 1.92969 163.453C2.6224 162.672 3.60677 162.281 4.88281 162.281C5.29427 162.281 5.70573 162.326 6.11719 162.414C6.52865 162.503 6.85156 162.607 7.08594 162.727L6.6875 163.828C6.40104 163.714 6.08854 163.62 5.75 163.547C5.41146 163.469 5.11198 163.43 4.85156 163.43C3.11198 163.43 2.24219 164.539 2.24219 166.758C2.24219 167.81 2.45312 168.617 2.875 169.18C3.30208 169.742 3.93229 170.023 4.76562 170.023C5.47917 170.023 6.21094 169.87 6.96094 169.562V170.711C6.38802 171.008 5.66667 171.156 4.79688 171.156ZM14.2656 171L14.0078 169.781H13.9453C13.5182 170.318 13.0911 170.682 12.6641 170.875C12.2422 171.062 11.7135 171.156 11.0781 171.156C10.2292 171.156 9.5625 170.938 9.07812 170.5C8.59896 170.062 8.35938 169.44 8.35938 168.633C8.35938 166.904 9.74219 165.997 12.5078 165.914L13.9609 165.867V165.336C13.9609 164.664 13.8151 164.169 13.5234 163.852C13.237 163.529 12.776 163.367 12.1406 163.367C11.4271 163.367 10.6198 163.586 9.71875 164.023L9.32031 163.031C9.74219 162.802 10.2031 162.622 10.7031 162.492C11.2083 162.362 11.7135 162.297 12.2188 162.297C13.2396 162.297 13.9948 162.523 14.4844 162.977C14.9792 163.43 15.2266 164.156 15.2266 165.156V171H14.2656ZM11.3359 170.086C12.1432 170.086 12.776 169.865 13.2344 169.422C13.6979 168.979 13.9297 168.359 13.9297 167.562V166.789L12.6328 166.844C11.6016 166.88 10.8568 167.042 10.3984 167.328C9.94531 167.609 9.71875 168.049 9.71875 168.648C9.71875 169.117 9.85938 169.474 10.1406 169.719C10.4271 169.964 10.8255 170.086 11.3359 170.086ZM23.4297 168.664C23.4297 169.461 23.1328 170.076 22.5391 170.508C21.9453 170.94 21.112 171.156 20.0391 171.156C18.9036 171.156 18.0182 170.977 17.3828 170.617V169.414C17.7943 169.622 18.2344 169.786 18.7031 169.906C19.1771 170.026 19.6328 170.086 20.0703 170.086C20.7474 170.086 21.2682 169.979 21.6328 169.766C21.9974 169.547 22.1797 169.216 22.1797 168.773C22.1797 168.44 22.0339 168.156 21.7422 167.922C21.4557 167.682 20.8932 167.401 20.0547 167.078C19.2578 166.781 18.6901 166.523 18.3516 166.305C18.0182 166.081 17.7682 165.828 17.6016 165.547C17.4401 165.266 17.3594 164.93 17.3594 164.539C17.3594 163.841 17.6432 163.292 18.2109 162.891C18.7786 162.484 19.5573 162.281 20.5469 162.281C21.4688 162.281 22.3698 162.469 23.25 162.844L22.7891 163.898C21.9297 163.544 21.151 163.367 20.4531 163.367C19.8385 163.367 19.375 163.464 19.0625 163.656C18.75 163.849 18.5938 164.115 18.5938 164.453C18.5938 164.682 18.651 164.878 18.7656 165.039C18.8854 165.201 19.0755 165.354 19.3359 165.5C19.5964 165.646 20.0964 165.857 20.8359 166.133C21.8516 166.503 22.5365 166.875 22.8906 167.25C23.25 167.625 23.4297 168.096 23.4297 168.664ZM26.8438 171H25.5469V162.438H26.8438V171ZM25.4375 160.117C25.4375 159.82 25.5104 159.604 25.6562 159.469C25.8021 159.328 25.9844 159.258 26.2031 159.258C26.4115 159.258 26.5911 159.328 26.7422 159.469C26.8932 159.609 26.9688 159.826 26.9688 160.117C26.9688 160.409 26.8932 160.628 26.7422 160.773C26.5911 160.914 26.4115 160.984 26.2031 160.984C25.9844 160.984 25.8021 160.914 25.6562 160.773C25.5104 160.628 25.4375 160.409 25.4375 160.117ZM35.4531 171V165.461C35.4531 164.763 35.2943 164.242 34.9766 163.898C34.6589 163.555 34.1615 163.383 33.4844 163.383C32.5885 163.383 31.9323 163.625 31.5156 164.109C31.099 164.594 30.8906 165.393 30.8906 166.508V171H29.5938V162.438H30.6484L30.8594 163.609H30.9219C31.1875 163.188 31.5599 162.862 32.0391 162.633C32.5182 162.398 33.0521 162.281 33.6406 162.281C34.6719 162.281 35.4479 162.531 35.9688 163.031C36.4896 163.526 36.75 164.32 36.75 165.414V171H35.4531ZM46.8125 166.711C46.8125 168.107 46.4609 169.198 45.7578 169.984C45.0547 170.766 44.0833 171.156 42.8438 171.156C42.0781 171.156 41.3984 170.977 40.8047 170.617C40.2109 170.258 39.7526 169.742 39.4297 169.07C39.1068 168.398 38.9453 167.612 38.9453 166.711C38.9453 165.315 39.2943 164.229 39.9922 163.453C40.6901 162.672 41.6589 162.281 42.8984 162.281C44.0964 162.281 45.0469 162.68 45.75 163.477C46.4583 164.273 46.8125 165.352 46.8125 166.711ZM40.2891 166.711C40.2891 167.805 40.5078 168.638 40.9453 169.211C41.3828 169.784 42.026 170.07 42.875 170.07C43.724 170.07 44.3672 169.786 44.8047 169.219C45.2474 168.646 45.4688 167.81 45.4688 166.711C45.4688 165.622 45.2474 164.797 44.8047 164.234C44.3672 163.667 43.7188 163.383 42.8594 163.383C42.0104 163.383 41.3698 163.661 40.9375 164.219C40.5052 164.776 40.2891 165.607 40.2891 166.711ZM60.2578 162.438V163.258L58.6719 163.445C58.8177 163.628 58.9479 163.867 59.0625 164.164C59.1771 164.456 59.2344 164.786 59.2344 165.156C59.2344 165.995 58.9479 166.664 58.375 167.164C57.8021 167.664 57.0156 167.914 56.0156 167.914C55.7604 167.914 55.5208 167.893 55.2969 167.852C54.7448 168.143 54.4688 168.51 54.4688 168.953C54.4688 169.188 54.5651 169.362 54.7578 169.477C54.9505 169.586 55.2812 169.641 55.75 169.641H57.2656C58.1927 169.641 58.9036 169.836 59.3984 170.227C59.8984 170.617 60.1484 171.185 60.1484 171.93C60.1484 172.878 59.7682 173.599 59.0078 174.094C58.2474 174.594 57.138 174.844 55.6797 174.844C54.5599 174.844 53.6953 174.635 53.0859 174.219C52.4818 173.802 52.1797 173.214 52.1797 172.453C52.1797 171.932 52.3464 171.482 52.6797 171.102C53.013 170.721 53.4818 170.464 54.0859 170.328C53.8672 170.229 53.6823 170.076 53.5312 169.867C53.3854 169.659 53.3125 169.417 53.3125 169.141C53.3125 168.828 53.3958 168.555 53.5625 168.32C53.7292 168.086 53.9922 167.859 54.3516 167.641C53.9089 167.458 53.5469 167.148 53.2656 166.711C52.9896 166.273 52.8516 165.773 52.8516 165.211C52.8516 164.273 53.1328 163.552 53.6953 163.047C54.2578 162.536 55.0547 162.281 56.0859 162.281C56.5339 162.281 56.9375 162.333 57.2969 162.438H60.2578ZM53.4297 172.438C53.4297 172.901 53.625 173.253 54.0156 173.492C54.4062 173.732 54.9661 173.852 55.6953 173.852C56.7839 173.852 57.5885 173.688 58.1094 173.359C58.6354 173.036 58.8984 172.596 58.8984 172.039C58.8984 171.576 58.7552 171.253 58.4688 171.07C58.1823 170.893 57.6432 170.805 56.8516 170.805H55.2969C54.7083 170.805 54.25 170.945 53.9219 171.227C53.5938 171.508 53.4297 171.911 53.4297 172.438ZM54.1328 165.18C54.1328 165.779 54.3021 166.232 54.6406 166.539C54.9792 166.846 55.4505 167 56.0547 167C57.3203 167 57.9531 166.385 57.9531 165.156C57.9531 163.87 57.3125 163.227 56.0312 163.227C55.4219 163.227 54.9531 163.391 54.625 163.719C54.2969 164.047 54.1328 164.534 54.1328 165.18ZM67.2812 171L67.0234 169.781H66.9609C66.5339 170.318 66.1068 170.682 65.6797 170.875C65.2578 171.062 64.7292 171.156 64.0938 171.156C63.2448 171.156 62.5781 170.938 62.0938 170.5C61.6146 170.062 61.375 169.44 61.375 168.633C61.375 166.904 62.7578 165.997 65.5234 165.914L66.9766 165.867V165.336C66.9766 164.664 66.8307 164.169 66.5391 163.852C66.2526 163.529 65.7917 163.367 65.1562 163.367C64.4427 163.367 63.6354 163.586 62.7344 164.023L62.3359 163.031C62.7578 162.802 63.2188 162.622 63.7188 162.492C64.224 162.362 64.7292 162.297 65.2344 162.297C66.2552 162.297 67.0104 162.523 67.5 162.977C67.9948 163.43 68.2422 164.156 68.2422 165.156V171H67.2812ZM64.3516 170.086C65.1589 170.086 65.7917 169.865 66.25 169.422C66.7135 168.979 66.9453 168.359 66.9453 167.562V166.789L65.6484 166.844C64.6172 166.88 63.8724 167.042 63.4141 167.328C62.9609 167.609 62.7344 168.049 62.7344 168.648C62.7344 169.117 62.875 169.474 63.1562 169.719C63.4427 169.964 63.8411 170.086 64.3516 170.086ZM81.8359 171V165.43C81.8359 164.747 81.6901 164.237 81.3984 163.898C81.1068 163.555 80.6536 163.383 80.0391 163.383C79.2318 163.383 78.6354 163.615 78.25 164.078C77.8646 164.542 77.6719 165.255 77.6719 166.219V171H76.375V165.43C76.375 164.747 76.2292 164.237 75.9375 163.898C75.6458 163.555 75.1901 163.383 74.5703 163.383C73.7578 163.383 73.1615 163.628 72.7812 164.117C72.4062 164.602 72.2188 165.398 72.2188 166.508V171H70.9219V162.438H71.9766L72.1875 163.609H72.25C72.4948 163.193 72.8385 162.867 73.2812 162.633C73.7292 162.398 74.2292 162.281 74.7812 162.281C76.1198 162.281 76.9948 162.766 77.4062 163.734H77.4688C77.724 163.286 78.0938 162.932 78.5781 162.672C79.0625 162.411 79.6146 162.281 80.2344 162.281C81.2031 162.281 81.9271 162.531 82.4062 163.031C82.8906 163.526 83.1328 164.32 83.1328 165.414V171H81.8359ZM89.7969 162.297C90.9219 162.297 91.7943 162.682 92.4141 163.453C93.0391 164.219 93.3516 165.305 93.3516 166.711C93.3516 168.117 93.0365 169.211 92.4062 169.992C91.7812 170.768 90.9115 171.156 89.7969 171.156C89.2396 171.156 88.7292 171.055 88.2656 170.852C87.8073 170.643 87.4219 170.326 87.1094 169.898H87.0156L86.7422 171H85.8125V158.844H87.1094V161.797C87.1094 162.458 87.0885 163.052 87.0469 163.578H87.1094C87.7135 162.724 88.6094 162.297 89.7969 162.297ZM89.6094 163.383C88.724 163.383 88.0859 163.638 87.6953 164.148C87.3047 164.654 87.1094 165.508 87.1094 166.711C87.1094 167.914 87.3099 168.776 87.7109 169.297C88.112 169.812 88.7552 170.07 89.6406 170.07C90.4375 170.07 91.0312 169.781 91.4219 169.203C91.8125 168.62 92.0078 167.784 92.0078 166.695C92.0078 165.581 91.8125 164.75 91.4219 164.203C91.0312 163.656 90.4271 163.383 89.6094 163.383ZM96.9219 171H95.625V158.844H96.9219V171ZM100.969 171H99.6719V162.438H100.969V171ZM99.5625 160.117C99.5625 159.82 99.6354 159.604 99.7812 159.469C99.9271 159.328 100.109 159.258 100.328 159.258C100.536 159.258 100.716 159.328 100.867 159.469C101.018 159.609 101.094 159.826 101.094 160.117C101.094 160.409 101.018 160.628 100.867 160.773C100.716 160.914 100.536 160.984 100.328 160.984C100.109 160.984 99.9271 160.914 99.7812 160.773C99.6354 160.628 99.5625 160.409 99.5625 160.117ZM109.578 171V165.461C109.578 164.763 109.419 164.242 109.102 163.898C108.784 163.555 108.286 163.383 107.609 163.383C106.714 163.383 106.057 163.625 105.641 164.109C105.224 164.594 105.016 165.393 105.016 166.508V171H103.719V162.438H104.773L104.984 163.609H105.047C105.312 163.188 105.685 162.862 106.164 162.633C106.643 162.398 107.177 162.281 107.766 162.281C108.797 162.281 109.573 162.531 110.094 163.031C110.615 163.526 110.875 164.32 110.875 165.414V171H109.578ZM120.555 162.438V163.258L118.969 163.445C119.115 163.628 119.245 163.867 119.359 164.164C119.474 164.456 119.531 164.786 119.531 165.156C119.531 165.995 119.245 166.664 118.672 167.164C118.099 167.664 117.312 167.914 116.312 167.914C116.057 167.914 115.818 167.893 115.594 167.852C115.042 168.143 114.766 168.51 114.766 168.953C114.766 169.188 114.862 169.362 115.055 169.477C115.247 169.586 115.578 169.641 116.047 169.641H117.562C118.49 169.641 119.201 169.836 119.695 170.227C120.195 170.617 120.445 171.185 120.445 171.93C120.445 172.878 120.065 173.599 119.305 174.094C118.544 174.594 117.435 174.844 115.977 174.844C114.857 174.844 113.992 174.635 113.383 174.219C112.779 173.802 112.477 173.214 112.477 172.453C112.477 171.932 112.643 171.482 112.977 171.102C113.31 170.721 113.779 170.464 114.383 170.328C114.164 170.229 113.979 170.076 113.828 169.867C113.682 169.659 113.609 169.417 113.609 169.141C113.609 168.828 113.693 168.555 113.859 168.32C114.026 168.086 114.289 167.859 114.648 167.641C114.206 167.458 113.844 167.148 113.562 166.711C113.286 166.273 113.148 165.773 113.148 165.211C113.148 164.273 113.43 163.552 113.992 163.047C114.555 162.536 115.352 162.281 116.383 162.281C116.831 162.281 117.234 162.333 117.594 162.438H120.555ZM113.727 172.438C113.727 172.901 113.922 173.253 114.312 173.492C114.703 173.732 115.263 173.852 115.992 173.852C117.081 173.852 117.885 173.688 118.406 173.359C118.932 173.036 119.195 172.596 119.195 172.039C119.195 171.576 119.052 171.253 118.766 171.07C118.479 170.893 117.94 170.805 117.148 170.805H115.594C115.005 170.805 114.547 170.945 114.219 171.227C113.891 171.508 113.727 171.911 113.727 172.438ZM114.43 165.18C114.43 165.779 114.599 166.232 114.938 166.539C115.276 166.846 115.747 167 116.352 167C117.617 167 118.25 166.385 118.25 165.156C118.25 163.87 117.609 163.227 116.328 163.227C115.719 163.227 115.25 163.391 114.922 163.719C114.594 164.047 114.43 164.534 114.43 165.18ZM123.672 169.141L123.789 169.32C123.654 169.841 123.458 170.445 123.203 171.133C122.948 171.826 122.682 172.469 122.406 173.062H121.43C121.57 172.521 121.724 171.852 121.891 171.055C122.062 170.258 122.182 169.62 122.25 169.141H123.672Z" fill="#544837"/>
<path d="M4.61914 104H2.07324V88.2949H10.9355V90.4648H4.61914V95.374H10.5381V97.5547H4.61914V104ZM16.0381 104H13.5137V92.1191H16.0381V104ZM13.3633 88.9717C13.3633 88.5205 13.485 88.1732 13.7285 87.9297C13.9792 87.6862 14.3337 87.5645 14.792 87.5645C15.236 87.5645 15.5798 87.6862 15.8232 87.9297C16.0739 88.1732 16.1992 88.5205 16.1992 88.9717C16.1992 89.4014 16.0739 89.7415 15.8232 89.9922C15.5798 90.2357 15.236 90.3574 14.792 90.3574C14.3337 90.3574 13.9792 90.2357 13.7285 89.9922C13.485 89.7415 13.3633 89.4014 13.3633 88.9717ZM25.6846 91.9043C26.193 91.9043 26.612 91.9401 26.9414 92.0117L26.6943 94.3643C26.3363 94.2783 25.9639 94.2354 25.5771 94.2354C24.5674 94.2354 23.7474 94.5648 23.1172 95.2236C22.4941 95.8825 22.1826 96.7383 22.1826 97.791V104H19.6582V92.1191H21.6348L21.9678 94.2139H22.0967C22.4906 93.5049 23.0026 92.9427 23.6328 92.5273C24.2702 92.112 24.9541 91.9043 25.6846 91.9043ZM37.1357 100.616C37.1357 101.776 36.7132 102.668 35.8682 103.291C35.0231 103.907 33.8128 104.215 32.2373 104.215C30.6546 104.215 29.3835 103.975 28.4238 103.495V101.314C29.8203 101.959 31.1201 102.281 32.3232 102.281C33.8773 102.281 34.6543 101.812 34.6543 100.874C34.6543 100.573 34.5684 100.323 34.3965 100.122C34.2246 99.9215 33.9417 99.7139 33.5479 99.499C33.154 99.2842 32.6061 99.0407 31.9043 98.7686C30.5365 98.2386 29.609 97.7087 29.1221 97.1787C28.6423 96.6488 28.4023 95.9613 28.4023 95.1162C28.4023 94.0993 28.8105 93.3115 29.627 92.7529C30.4505 92.1872 31.5677 91.9043 32.9785 91.9043C34.375 91.9043 35.6963 92.1872 36.9424 92.7529L36.126 94.6543C34.8441 94.1243 33.7663 93.8594 32.8926 93.8594C31.5605 93.8594 30.8945 94.2389 30.8945 94.998C30.8945 95.3704 31.0664 95.6855 31.4102 95.9434C31.7611 96.2012 32.5202 96.5557 33.6875 97.0068C34.6686 97.3864 35.3812 97.7337 35.8252 98.0488C36.2692 98.3639 36.5986 98.7292 36.8135 99.1445C37.0283 99.5527 37.1357 100.043 37.1357 100.616ZM44.3008 102.174C44.9167 102.174 45.5326 102.077 46.1484 101.884V103.785C45.8691 103.907 45.5075 104.007 45.0635 104.086C44.6266 104.172 44.1719 104.215 43.6992 104.215C41.3073 104.215 40.1113 102.954 40.1113 100.434V94.0312H38.4893V92.9141L40.2295 91.9902L41.0889 89.4766H42.6465V92.1191H46.0303V94.0312H42.6465V100.391C42.6465 100.999 42.7969 101.451 43.0977 101.744C43.4056 102.031 43.8066 102.174 44.3008 102.174ZM59.0391 104.215C57.2415 104.215 55.8737 103.692 54.9355 102.646C54.0046 101.594 53.5391 100.086 53.5391 98.124C53.5391 96.126 54.026 94.5898 55 93.5156C55.9811 92.4414 57.3955 91.9043 59.2432 91.9043C60.4964 91.9043 61.6243 92.137 62.627 92.6025L61.8643 94.6328C60.7972 94.2174 59.9163 94.0098 59.2217 94.0098C57.1663 94.0098 56.1387 95.374 56.1387 98.1025C56.1387 99.4346 56.3929 100.437 56.9014 101.11C57.417 101.776 58.1689 102.109 59.1572 102.109C60.2816 102.109 61.3451 101.83 62.3477 101.271V103.474C61.8965 103.739 61.4131 103.928 60.8975 104.043C60.389 104.158 59.7695 104.215 59.0391 104.215ZM67.665 104H65.1406V87.2852H67.665V104ZM73.8096 104H71.2852V92.1191H73.8096V104ZM71.1348 88.9717C71.1348 88.5205 71.2565 88.1732 71.5 87.9297C71.7507 87.6862 72.1051 87.5645 72.5635 87.5645C73.0075 87.5645 73.3512 87.6862 73.5947 87.9297C73.8454 88.1732 73.9707 88.5205 73.9707 88.9717C73.9707 89.4014 73.8454 89.7415 73.5947 89.9922C73.3512 90.2357 73.0075 90.3574 72.5635 90.3574C72.1051 90.3574 71.7507 90.2357 71.5 89.9922C71.2565 89.7415 71.1348 89.4014 71.1348 88.9717ZM82.2207 104.215C80.4232 104.215 79.0553 103.692 78.1172 102.646C77.1862 101.594 76.7207 100.086 76.7207 98.124C76.7207 96.126 77.2077 94.5898 78.1816 93.5156C79.1628 92.4414 80.5771 91.9043 82.4248 91.9043C83.6781 91.9043 84.806 92.137 85.8086 92.6025L85.0459 94.6328C83.9788 94.2174 83.098 94.0098 82.4033 94.0098C80.348 94.0098 79.3203 95.374 79.3203 98.1025C79.3203 99.4346 79.5745 100.437 80.083 101.11C80.5986 101.776 81.3506 102.109 82.3389 102.109C83.4632 102.109 84.5267 101.83 85.5293 101.271V103.474C85.0781 103.739 84.5947 103.928 84.0791 104.043C83.5706 104.158 82.9512 104.215 82.2207 104.215ZM90.7607 97.7266L92.1895 95.9434L95.7773 92.1191H98.6885L93.9082 97.2217L98.9893 104H96.0244L92.2109 98.79L90.8252 99.9287V104H88.3223V87.2852H90.8252V95.4385L90.6963 97.7266H90.7607ZM111.053 102.174C111.669 102.174 112.285 102.077 112.9 101.884V103.785C112.621 103.907 112.259 104.007 111.815 104.086C111.379 104.172 110.924 104.215 110.451 104.215C108.059 104.215 106.863 102.954 106.863 100.434V94.0312H105.241V92.9141L106.981 91.9902L107.841 89.4766H109.398V92.1191H112.782V94.0312H109.398V100.391C109.398 100.999 109.549 101.451 109.85 101.744C110.158 102.031 110.559 102.174 111.053 102.174ZM120.474 104.215C118.626 104.215 117.179 103.678 116.134 102.604C115.095 101.522 114.576 100.036 114.576 98.1455C114.576 96.2048 115.06 94.6794 116.026 93.5693C116.993 92.4593 118.322 91.9043 120.012 91.9043C121.58 91.9043 122.819 92.3805 123.729 93.333C124.638 94.2855 125.093 95.596 125.093 97.2646V98.6289H117.176C117.212 99.7819 117.523 100.67 118.11 101.293C118.698 101.909 119.525 102.217 120.592 102.217C121.294 102.217 121.945 102.152 122.547 102.023C123.156 101.887 123.807 101.665 124.502 101.357V103.409C123.886 103.703 123.263 103.91 122.633 104.032C122.003 104.154 121.283 104.215 120.474 104.215ZM120.012 93.8164C119.21 93.8164 118.565 94.0706 118.078 94.5791C117.598 95.0876 117.312 95.8288 117.219 96.8027H122.611C122.597 95.8216 122.361 95.0804 121.902 94.5791C121.444 94.0706 120.814 93.8164 120.012 93.8164ZM135.942 100.616C135.942 101.776 135.52 102.668 134.675 103.291C133.83 103.907 132.619 104.215 131.044 104.215C129.461 104.215 128.19 103.975 127.23 103.495V101.314C128.627 101.959 129.927 102.281 131.13 102.281C132.684 102.281 133.461 101.812 133.461 100.874C133.461 100.573 133.375 100.323 133.203 100.122C133.031 99.9215 132.748 99.7139 132.354 99.499C131.961 99.2842 131.413 99.0407 130.711 98.7686C129.343 98.2386 128.416 97.7087 127.929 97.1787C127.449 96.6488 127.209 95.9613 127.209 95.1162C127.209 94.0993 127.617 93.3115 128.434 92.7529C129.257 92.1872 130.374 91.9043 131.785 91.9043C133.182 91.9043 134.503 92.1872 135.749 92.7529L134.933 94.6543C133.651 94.1243 132.573 93.8594 131.699 93.8594C130.367 93.8594 129.701 94.2389 129.701 94.998C129.701 95.3704 129.873 95.6855 130.217 95.9434C130.568 96.2012 131.327 96.5557 132.494 97.0068C133.475 97.3864 134.188 97.7337 134.632 98.0488C135.076 98.3639 135.405 98.7292 135.62 99.1445C135.835 99.5527 135.942 100.043 135.942 100.616ZM143.107 102.174C143.723 102.174 144.339 102.077 144.955 101.884V103.785C144.676 103.907 144.314 104.007 143.87 104.086C143.433 104.172 142.979 104.215 142.506 104.215C140.114 104.215 138.918 102.954 138.918 100.434V94.0312H137.296V92.9141L139.036 91.9902L139.896 89.4766H141.453V92.1191H144.837V94.0312H141.453V100.391C141.453 100.999 141.604 101.451 141.904 101.744C142.212 102.031 142.613 102.174 143.107 102.174ZM155.321 100.616C155.321 101.776 154.899 102.668 154.054 103.291C153.209 103.907 151.998 104.215 150.423 104.215C148.84 104.215 147.569 103.975 146.609 103.495V101.314C148.006 101.959 149.306 102.281 150.509 102.281C152.063 102.281 152.84 101.812 152.84 100.874C152.84 100.573 152.754 100.323 152.582 100.122C152.41 99.9215 152.127 99.7139 151.733 99.499C151.34 99.2842 150.792 99.0407 150.09 98.7686C148.722 98.2386 147.795 97.7087 147.308 97.1787C146.828 96.6488 146.588 95.9613 146.588 95.1162C146.588 94.0993 146.996 93.3115 147.812 92.7529C148.636 92.1872 149.753 91.9043 151.164 91.9043C152.561 91.9043 153.882 92.1872 155.128 92.7529L154.312 94.6543C153.03 94.1243 151.952 93.8594 151.078 93.8594C149.746 93.8594 149.08 94.2389 149.08 94.998C149.08 95.3704 149.252 95.6855 149.596 95.9434C149.947 96.2012 150.706 96.5557 151.873 97.0068C152.854 97.3864 153.567 97.7337 154.011 98.0488C154.455 98.3639 154.784 98.7292 154.999 99.1445C155.214 99.5527 155.321 100.043 155.321 100.616Z" fill="#2F281E"/>
</g>
<defs>
<clipPath id="clip0_2_726">
<rect width="262.356" height="98" fill="white" transform="translate(0 80)"/>
</clipPath>
</defs>
</svg>
