<svg width="263" height="178" viewBox="0 0 263 178" fill="none" xmlns="http://www.w3.org/2000/svg">
<rect width="50" height="50" rx="19" fill="#FAB005"/>
<path d="M26.4821 23.6429L27.6518 24.1875L29.3929 23.6696V22.4554C29.3929 20.3929 27.6518 18.7411 25.5714 18.7411C23.5 18.7411 21.75 20.3839 21.75 22.4286V27.9643C21.75 28.4732 21.3393 28.875 20.8393 28.875C20.3393 28.875 19.9286 28.4732 19.9286 27.9643V25.625H17C17 27.9732 17 28 17 28C17 30.1161 18.7143 31.8304 20.8304 31.8304C22.9286 31.8304 24.6607 30.1429 24.6607 28.0536V22.5893C24.6607 22.0893 25.0714 21.6786 25.5714 21.6786C26.0714 21.6786 26.4821 22.0893 26.4821 22.5893V23.6429ZM31.2143 25.625V28.0804C31.2143 28.5804 30.8036 28.9821 30.3036 28.9821C29.8036 28.9821 29.3929 28.5804 29.3929 28.0804V25.6696L27.6518 26.1875L26.4821 25.6429V28.0357C26.4821 30.1339 28.2054 31.8304 30.3125 31.8304C32.4286 31.8304 34.1429 30.1161 34.1429 28C34.1429 28 34.1429 27.9732 34.1429 25.625H31.2143Z" fill="white"/>
<g clip-path="url(#clip0_2_734)">
<path d="M8.01562 141.961C8.01562 142.966 7.65104 143.75 6.92188 144.312C6.19271 144.875 5.20312 145.156 3.95312 145.156C2.59896 145.156 1.55729 144.982 0.828125 144.633V143.352C1.29688 143.549 1.80729 143.706 2.35938 143.82C2.91146 143.935 3.45833 143.992 4 143.992C4.88542 143.992 5.55208 143.826 6 143.492C6.44792 143.154 6.67188 142.685 6.67188 142.086C6.67188 141.69 6.59115 141.367 6.42969 141.117C6.27344 140.862 6.00781 140.628 5.63281 140.414C5.26302 140.201 4.69792 139.958 3.9375 139.688C2.875 139.307 2.11458 138.857 1.65625 138.336C1.20312 137.815 0.976562 137.135 0.976562 136.297C0.976562 135.417 1.30729 134.716 1.96875 134.195C2.63021 133.674 3.50521 133.414 4.59375 133.414C5.72917 133.414 6.77344 133.622 7.72656 134.039L7.3125 135.195C6.36979 134.799 5.45312 134.602 4.5625 134.602C3.85938 134.602 3.3099 134.753 2.91406 135.055C2.51823 135.357 2.32031 135.776 2.32031 136.312C2.32031 136.708 2.39323 137.034 2.53906 137.289C2.6849 137.539 2.92969 137.771 3.27344 137.984C3.6224 138.193 4.15365 138.424 4.86719 138.68C6.0651 139.107 6.88802 139.565 7.33594 140.055C7.78906 140.544 8.01562 141.18 8.01562 141.961ZM14.1406 145.156C13.5833 145.156 13.0729 145.055 12.6094 144.852C12.151 144.643 11.7656 144.326 11.4531 143.898H11.3594C11.4219 144.398 11.4531 144.872 11.4531 145.32V148.844H10.1562V136.438H11.2109L11.3906 137.609H11.4531C11.7865 137.141 12.1745 136.802 12.6172 136.594C13.0599 136.385 13.5677 136.281 14.1406 136.281C15.276 136.281 16.151 136.669 16.7656 137.445C17.3854 138.221 17.6953 139.31 17.6953 140.711C17.6953 142.117 17.3802 143.211 16.75 143.992C16.125 144.768 15.2552 145.156 14.1406 145.156ZM13.9531 137.383C13.0781 137.383 12.4453 137.625 12.0547 138.109C11.6641 138.594 11.4635 139.365 11.4531 140.422V140.711C11.4531 141.914 11.6536 142.776 12.0547 143.297C12.4557 143.812 13.099 144.07 13.9844 144.07C14.724 144.07 15.3021 143.771 15.7188 143.172C16.1406 142.573 16.3516 141.747 16.3516 140.695C16.3516 139.628 16.1406 138.81 15.7188 138.242C15.3021 137.669 14.7135 137.383 13.9531 137.383ZM27.3594 140.711C27.3594 142.107 27.0078 143.198 26.3047 143.984C25.6016 144.766 24.6302 145.156 23.3906 145.156C22.625 145.156 21.9453 144.977 21.3516 144.617C20.7578 144.258 20.2995 143.742 19.9766 143.07C19.6536 142.398 19.4922 141.612 19.4922 140.711C19.4922 139.315 19.8411 138.229 20.5391 137.453C21.237 136.672 22.2057 136.281 23.4453 136.281C24.6432 136.281 25.5938 136.68 26.2969 137.477C27.0052 138.273 27.3594 139.352 27.3594 140.711ZM20.8359 140.711C20.8359 141.805 21.0547 142.638 21.4922 143.211C21.9297 143.784 22.5729 144.07 23.4219 144.07C24.2708 144.07 24.9141 143.786 25.3516 143.219C25.7943 142.646 26.0156 141.81 26.0156 140.711C26.0156 139.622 25.7943 138.797 25.3516 138.234C24.9141 137.667 24.2656 137.383 23.4062 137.383C22.5573 137.383 21.9167 137.661 21.4844 138.219C21.0521 138.776 20.8359 139.607 20.8359 140.711ZM33.5469 136.281C33.9271 136.281 34.2682 136.312 34.5703 136.375L34.3906 137.578C34.0365 137.5 33.724 137.461 33.4531 137.461C32.7604 137.461 32.1667 137.742 31.6719 138.305C31.1823 138.867 30.9375 139.568 30.9375 140.406V145H29.6406V136.438H30.7109L30.8594 138.023H30.9219C31.2396 137.466 31.6224 137.036 32.0703 136.734C32.5182 136.432 33.0104 136.281 33.5469 136.281ZM38.9375 144.086C39.1667 144.086 39.388 144.07 39.6016 144.039C39.8151 144.003 39.9844 143.966 40.1094 143.93V144.922C39.9688 144.99 39.7604 145.044 39.4844 145.086C39.2135 145.133 38.9688 145.156 38.75 145.156C37.0938 145.156 36.2656 144.284 36.2656 142.539V137.445H35.0391V136.82L36.2656 136.281L36.8125 134.453H37.5625V136.438H40.0469V137.445H37.5625V142.484C37.5625 143 37.6849 143.396 37.9297 143.672C38.1745 143.948 38.5104 144.086 38.9375 144.086ZM47.3516 142.664C47.3516 143.461 47.0547 144.076 46.4609 144.508C45.8672 144.94 45.0339 145.156 43.9609 145.156C42.8255 145.156 41.9401 144.977 41.3047 144.617V143.414C41.7161 143.622 42.1562 143.786 42.625 143.906C43.099 144.026 43.5547 144.086 43.9922 144.086C44.6693 144.086 45.1901 143.979 45.5547 143.766C45.9193 143.547 46.1016 143.216 46.1016 142.773C46.1016 142.44 45.9557 142.156 45.6641 141.922C45.3776 141.682 44.8151 141.401 43.9766 141.078C43.1797 140.781 42.612 140.523 42.2734 140.305C41.9401 140.081 41.6901 139.828 41.5234 139.547C41.362 139.266 41.2812 138.93 41.2812 138.539C41.2812 137.841 41.5651 137.292 42.1328 136.891C42.7005 136.484 43.4792 136.281 44.4688 136.281C45.3906 136.281 46.2917 136.469 47.1719 136.844L46.7109 137.898C45.8516 137.544 45.0729 137.367 44.375 137.367C43.7604 137.367 43.2969 137.464 42.9844 137.656C42.6719 137.849 42.5156 138.115 42.5156 138.453C42.5156 138.682 42.5729 138.878 42.6875 139.039C42.8073 139.201 42.9974 139.354 43.2578 139.5C43.5182 139.646 44.0182 139.857 44.7578 140.133C45.7734 140.503 46.4583 140.875 46.8125 141.25C47.1719 141.625 47.3516 142.096 47.3516 142.664ZM57.6094 136.297C58.7344 136.297 59.6068 136.682 60.2266 137.453C60.8516 138.219 61.1641 139.305 61.1641 140.711C61.1641 142.117 60.849 143.211 60.2188 143.992C59.5938 144.768 58.724 145.156 57.6094 145.156C57.0521 145.156 56.5417 145.055 56.0781 144.852C55.6198 144.643 55.2344 144.326 54.9219 143.898H54.8281L54.5547 145H53.625V132.844H54.9219V135.797C54.9219 136.458 54.901 137.052 54.8594 137.578H54.9219C55.526 136.724 56.4219 136.297 57.6094 136.297ZM57.4219 137.383C56.5365 137.383 55.8984 137.638 55.5078 138.148C55.1172 138.654 54.9219 139.508 54.9219 140.711C54.9219 141.914 55.1224 142.776 55.5234 143.297C55.9245 143.812 56.5677 144.07 57.4531 144.07C58.25 144.07 58.8438 143.781 59.2344 143.203C59.625 142.62 59.8203 141.784 59.8203 140.695C59.8203 139.581 59.625 138.75 59.2344 138.203C58.8438 137.656 58.2396 137.383 57.4219 137.383ZM67.0547 145.156C65.7891 145.156 64.7891 144.771 64.0547 144C63.3255 143.229 62.9609 142.159 62.9609 140.789C62.9609 139.409 63.2995 138.312 63.9766 137.5C64.6589 136.688 65.5729 136.281 66.7188 136.281C67.7917 136.281 68.6406 136.635 69.2656 137.344C69.8906 138.047 70.2031 138.977 70.2031 140.133V140.953H64.3047C64.3307 141.958 64.5833 142.721 65.0625 143.242C65.5469 143.763 66.2266 144.023 67.1016 144.023C68.0234 144.023 68.9349 143.831 69.8359 143.445V144.602C69.3776 144.799 68.9427 144.94 68.5312 145.023C68.125 145.112 67.6328 145.156 67.0547 145.156ZM66.7031 137.367C66.0156 137.367 65.4661 137.591 65.0547 138.039C64.6484 138.487 64.4089 139.107 64.3359 139.898H68.8125C68.8125 139.081 68.6302 138.456 68.2656 138.023C67.901 137.586 67.3802 137.367 66.7031 137.367ZM75.1875 144.086C75.4167 144.086 75.638 144.07 75.8516 144.039C76.0651 144.003 76.2344 143.966 76.3594 143.93V144.922C76.2188 144.99 76.0104 145.044 75.7344 145.086C75.4635 145.133 75.2188 145.156 75 145.156C73.3438 145.156 72.5156 144.284 72.5156 142.539V137.445H71.2891V136.82L72.5156 136.281L73.0625 134.453H73.8125V136.438H76.2969V137.445H73.8125V142.484C73.8125 143 73.9349 143.396 74.1797 143.672C74.4245 143.948 74.7604 144.086 75.1875 144.086ZM80.8438 144.086C81.0729 144.086 81.2943 144.07 81.5078 144.039C81.7214 144.003 81.8906 143.966 82.0156 143.93V144.922C81.875 144.99 81.6667 145.044 81.3906 145.086C81.1198 145.133 80.875 145.156 80.6562 145.156C79 145.156 78.1719 144.284 78.1719 142.539V137.445H76.9453V136.82L78.1719 136.281L78.7188 134.453H79.4688V136.438H81.9531V137.445H79.4688V142.484C79.4688 143 79.5911 143.396 79.8359 143.672C80.0807 143.948 80.4167 144.086 80.8438 144.086ZM85.0312 145H83.7344V136.438H85.0312V145ZM83.625 134.117C83.625 133.82 83.6979 133.604 83.8438 133.469C83.9896 133.328 84.1719 133.258 84.3906 133.258C84.599 133.258 84.7786 133.328 84.9297 133.469C85.0807 133.609 85.1562 133.826 85.1562 134.117C85.1562 134.409 85.0807 134.628 84.9297 134.773C84.7786 134.914 84.599 134.984 84.3906 134.984C84.1719 134.984 83.9896 134.914 83.8438 134.773C83.6979 134.628 83.625 134.409 83.625 134.117ZM93.6406 145V139.461C93.6406 138.763 93.4818 138.242 93.1641 137.898C92.8464 137.555 92.349 137.383 91.6719 137.383C90.776 137.383 90.1198 137.625 89.7031 138.109C89.2865 138.594 89.0781 139.393 89.0781 140.508V145H87.7812V136.438H88.8359L89.0469 137.609H89.1094C89.375 137.188 89.7474 136.862 90.2266 136.633C90.7057 136.398 91.2396 136.281 91.8281 136.281C92.8594 136.281 93.6354 136.531 94.1562 137.031C94.6771 137.526 94.9375 138.32 94.9375 139.414V145H93.6406ZM104.617 136.438V137.258L103.031 137.445C103.177 137.628 103.307 137.867 103.422 138.164C103.536 138.456 103.594 138.786 103.594 139.156C103.594 139.995 103.307 140.664 102.734 141.164C102.161 141.664 101.375 141.914 100.375 141.914C100.12 141.914 99.8802 141.893 99.6562 141.852C99.1042 142.143 98.8281 142.51 98.8281 142.953C98.8281 143.188 98.9245 143.362 99.1172 143.477C99.3099 143.586 99.6406 143.641 100.109 143.641H101.625C102.552 143.641 103.263 143.836 103.758 144.227C104.258 144.617 104.508 145.185 104.508 145.93C104.508 146.878 104.128 147.599 103.367 148.094C102.607 148.594 101.497 148.844 100.039 148.844C98.9193 148.844 98.0547 148.635 97.4453 148.219C96.8411 147.802 96.5391 147.214 96.5391 146.453C96.5391 145.932 96.7057 145.482 97.0391 145.102C97.3724 144.721 97.8411 144.464 98.4453 144.328C98.2266 144.229 98.0417 144.076 97.8906 143.867C97.7448 143.659 97.6719 143.417 97.6719 143.141C97.6719 142.828 97.7552 142.555 97.9219 142.32C98.0885 142.086 98.3516 141.859 98.7109 141.641C98.2682 141.458 97.9062 141.148 97.625 140.711C97.349 140.273 97.2109 139.773 97.2109 139.211C97.2109 138.273 97.4922 137.552 98.0547 137.047C98.6172 136.536 99.4141 136.281 100.445 136.281C100.893 136.281 101.297 136.333 101.656 136.438H104.617ZM97.7891 146.438C97.7891 146.901 97.9844 147.253 98.375 147.492C98.7656 147.732 99.3255 147.852 100.055 147.852C101.143 147.852 101.948 147.688 102.469 147.359C102.995 147.036 103.258 146.596 103.258 146.039C103.258 145.576 103.115 145.253 102.828 145.07C102.542 144.893 102.003 144.805 101.211 144.805H99.6562C99.0677 144.805 98.6094 144.945 98.2812 145.227C97.9531 145.508 97.7891 145.911 97.7891 146.438ZM98.4922 139.18C98.4922 139.779 98.6615 140.232 99 140.539C99.3385 140.846 99.8099 141 100.414 141C101.68 141 102.312 140.385 102.312 139.156C102.312 137.87 101.672 137.227 100.391 137.227C99.7812 137.227 99.3125 137.391 98.9844 137.719C98.6562 138.047 98.4922 138.534 98.4922 139.18ZM107.734 143.141L107.852 143.32C107.716 143.841 107.521 144.445 107.266 145.133C107.01 145.826 106.745 146.469 106.469 147.062H105.492C105.633 146.521 105.786 145.852 105.953 145.055C106.125 144.258 106.245 143.62 106.312 143.141H107.734ZM115.75 145H114.453V132.844H115.75V145ZM125.891 140.711C125.891 142.107 125.539 143.198 124.836 143.984C124.133 144.766 123.161 145.156 121.922 145.156C121.156 145.156 120.477 144.977 119.883 144.617C119.289 144.258 118.831 143.742 118.508 143.07C118.185 142.398 118.023 141.612 118.023 140.711C118.023 139.315 118.372 138.229 119.07 137.453C119.768 136.672 120.737 136.281 121.977 136.281C123.174 136.281 124.125 136.68 124.828 137.477C125.536 138.273 125.891 139.352 125.891 140.711ZM119.367 140.711C119.367 141.805 119.586 142.638 120.023 143.211C120.461 143.784 121.104 144.07 121.953 144.07C122.802 144.07 123.445 143.786 123.883 143.219C124.326 142.646 124.547 141.81 124.547 140.711C124.547 139.622 124.326 138.797 123.883 138.234C123.445 137.667 122.797 137.383 121.938 137.383C121.089 137.383 120.448 137.661 120.016 138.219C119.583 138.776 119.367 139.607 119.367 140.711ZM130.938 144.086C131.167 144.086 131.388 144.07 131.602 144.039C131.815 144.003 131.984 143.966 132.109 143.93V144.922C131.969 144.99 131.76 145.044 131.484 145.086C131.214 145.133 130.969 145.156 130.75 145.156C129.094 145.156 128.266 144.284 128.266 142.539V137.445H127.039V136.82L128.266 136.281L128.812 134.453H129.562V136.438H132.047V137.445H129.562V142.484C129.562 143 129.685 143.396 129.93 143.672C130.174 143.948 130.51 144.086 130.938 144.086ZM136.594 144.086C136.823 144.086 137.044 144.07 137.258 144.039C137.471 144.003 137.641 143.966 137.766 143.93V144.922C137.625 144.99 137.417 145.044 137.141 145.086C136.87 145.133 136.625 145.156 136.406 145.156C134.75 145.156 133.922 144.284 133.922 142.539V137.445H132.695V136.82L133.922 136.281L134.469 134.453H135.219V136.438H137.703V137.445H135.219V142.484C135.219 143 135.341 143.396 135.586 143.672C135.831 143.948 136.167 144.086 136.594 144.086ZM143.102 145.156C141.836 145.156 140.836 144.771 140.102 144C139.372 143.229 139.008 142.159 139.008 140.789C139.008 139.409 139.346 138.312 140.023 137.5C140.706 136.688 141.62 136.281 142.766 136.281C143.839 136.281 144.688 136.635 145.312 137.344C145.938 138.047 146.25 138.977 146.25 140.133V140.953H140.352C140.378 141.958 140.63 142.721 141.109 143.242C141.594 143.763 142.273 144.023 143.148 144.023C144.07 144.023 144.982 143.831 145.883 143.445V144.602C145.424 144.799 144.99 144.94 144.578 145.023C144.172 145.112 143.68 145.156 143.102 145.156ZM142.75 137.367C142.062 137.367 141.513 137.591 141.102 138.039C140.695 138.487 140.456 139.107 140.383 139.898H144.859C144.859 139.081 144.677 138.456 144.312 138.023C143.948 137.586 143.427 137.367 142.75 137.367ZM152.375 136.281C152.755 136.281 153.096 136.312 153.398 136.375L153.219 137.578C152.865 137.5 152.552 137.461 152.281 137.461C151.589 137.461 150.995 137.742 150.5 138.305C150.01 138.867 149.766 139.568 149.766 140.406V145H148.469V136.438H149.539L149.688 138.023H149.75C150.068 137.466 150.451 137.036 150.898 136.734C151.346 136.432 151.839 136.281 152.375 136.281ZM153.641 136.438H155.031L156.906 141.32C157.318 142.435 157.573 143.24 157.672 143.734H157.734C157.802 143.469 157.943 143.016 158.156 142.375C158.375 141.729 159.083 139.75 160.281 136.438H161.672L157.992 146.188C157.628 147.151 157.201 147.833 156.711 148.234C156.227 148.641 155.63 148.844 154.922 148.844C154.526 148.844 154.135 148.799 153.75 148.711V147.672C154.036 147.734 154.357 147.766 154.711 147.766C155.602 147.766 156.237 147.266 156.617 146.266L157.094 145.047L153.641 136.438ZM172.484 145L172.227 143.781H172.164C171.737 144.318 171.31 144.682 170.883 144.875C170.461 145.062 169.932 145.156 169.297 145.156C168.448 145.156 167.781 144.938 167.297 144.5C166.818 144.062 166.578 143.44 166.578 142.633C166.578 140.904 167.961 139.997 170.727 139.914L172.18 139.867V139.336C172.18 138.664 172.034 138.169 171.742 137.852C171.456 137.529 170.995 137.367 170.359 137.367C169.646 137.367 168.839 137.586 167.938 138.023L167.539 137.031C167.961 136.802 168.422 136.622 168.922 136.492C169.427 136.362 169.932 136.297 170.438 136.297C171.458 136.297 172.214 136.523 172.703 136.977C173.198 137.43 173.445 138.156 173.445 139.156V145H172.484ZM169.555 144.086C170.362 144.086 170.995 143.865 171.453 143.422C171.917 142.979 172.148 142.359 172.148 141.562V140.789L170.852 140.844C169.82 140.88 169.076 141.042 168.617 141.328C168.164 141.609 167.938 142.049 167.938 142.648C167.938 143.117 168.078 143.474 168.359 143.719C168.646 143.964 169.044 144.086 169.555 144.086ZM181.984 145V139.461C181.984 138.763 181.826 138.242 181.508 137.898C181.19 137.555 180.693 137.383 180.016 137.383C179.12 137.383 178.464 137.625 178.047 138.109C177.63 138.594 177.422 139.393 177.422 140.508V145H176.125V136.438H177.18L177.391 137.609H177.453C177.719 137.188 178.091 136.862 178.57 136.633C179.049 136.398 179.583 136.281 180.172 136.281C181.203 136.281 181.979 136.531 182.5 137.031C183.021 137.526 183.281 138.32 183.281 139.414V145H181.984ZM191.781 143.852H191.711C191.112 144.721 190.216 145.156 189.023 145.156C187.904 145.156 187.031 144.773 186.406 144.008C185.786 143.242 185.477 142.154 185.477 140.742C185.477 139.331 185.789 138.234 186.414 137.453C187.039 136.672 187.909 136.281 189.023 136.281C190.185 136.281 191.076 136.703 191.695 137.547H191.797L191.742 136.93L191.711 136.328V132.844H193.008V145H191.953L191.781 143.852ZM189.188 144.07C190.073 144.07 190.714 143.831 191.109 143.352C191.51 142.867 191.711 142.089 191.711 141.016V140.742C191.711 139.529 191.508 138.664 191.102 138.148C190.701 137.628 190.057 137.367 189.172 137.367C188.411 137.367 187.828 137.664 187.422 138.258C187.021 138.846 186.82 139.68 186.82 140.758C186.82 141.852 187.021 142.677 187.422 143.234C187.823 143.792 188.411 144.07 189.188 144.07ZM203.906 136.297C205.031 136.297 205.904 136.682 206.523 137.453C207.148 138.219 207.461 139.305 207.461 140.711C207.461 142.117 207.146 143.211 206.516 143.992C205.891 144.768 205.021 145.156 203.906 145.156C203.349 145.156 202.839 145.055 202.375 144.852C201.917 144.643 201.531 144.326 201.219 143.898H201.125L200.852 145H199.922V132.844H201.219V135.797C201.219 136.458 201.198 137.052 201.156 137.578H201.219C201.823 136.724 202.719 136.297 203.906 136.297ZM203.719 137.383C202.833 137.383 202.195 137.638 201.805 138.148C201.414 138.654 201.219 139.508 201.219 140.711C201.219 141.914 201.419 142.776 201.82 143.297C202.221 143.812 202.865 144.07 203.75 144.07C204.547 144.07 205.141 143.781 205.531 143.203C205.922 142.62 206.117 141.784 206.117 140.695C206.117 139.581 205.922 138.75 205.531 138.203C205.141 137.656 204.536 137.383 203.719 137.383ZM211.031 145H209.734V136.438H211.031V145ZM209.625 134.117C209.625 133.82 209.698 133.604 209.844 133.469C209.99 133.328 210.172 133.258 210.391 133.258C210.599 133.258 210.779 133.328 210.93 133.469C211.081 133.609 211.156 133.826 211.156 134.117C211.156 134.409 211.081 134.628 210.93 134.773C210.779 134.914 210.599 134.984 210.391 134.984C210.172 134.984 209.99 134.914 209.844 134.773C209.698 134.628 209.625 134.409 209.625 134.117ZM219.641 145V139.461C219.641 138.763 219.482 138.242 219.164 137.898C218.846 137.555 218.349 137.383 217.672 137.383C216.776 137.383 216.12 137.625 215.703 138.109C215.286 138.594 215.078 139.393 215.078 140.508V145H213.781V136.438H214.836L215.047 137.609H215.109C215.375 137.188 215.747 136.862 216.227 136.633C216.706 136.398 217.24 136.281 217.828 136.281C218.859 136.281 219.635 136.531 220.156 137.031C220.677 137.526 220.938 138.32 220.938 139.414V145H219.641ZM230.617 136.438V137.258L229.031 137.445C229.177 137.628 229.307 137.867 229.422 138.164C229.536 138.456 229.594 138.786 229.594 139.156C229.594 139.995 229.307 140.664 228.734 141.164C228.161 141.664 227.375 141.914 226.375 141.914C226.12 141.914 225.88 141.893 225.656 141.852C225.104 142.143 224.828 142.51 224.828 142.953C224.828 143.188 224.924 143.362 225.117 143.477C225.31 143.586 225.641 143.641 226.109 143.641H227.625C228.552 143.641 229.263 143.836 229.758 144.227C230.258 144.617 230.508 145.185 230.508 145.93C230.508 146.878 230.128 147.599 229.367 148.094C228.607 148.594 227.497 148.844 226.039 148.844C224.919 148.844 224.055 148.635 223.445 148.219C222.841 147.802 222.539 147.214 222.539 146.453C222.539 145.932 222.706 145.482 223.039 145.102C223.372 144.721 223.841 144.464 224.445 144.328C224.227 144.229 224.042 144.076 223.891 143.867C223.745 143.659 223.672 143.417 223.672 143.141C223.672 142.828 223.755 142.555 223.922 142.32C224.089 142.086 224.352 141.859 224.711 141.641C224.268 141.458 223.906 141.148 223.625 140.711C223.349 140.273 223.211 139.773 223.211 139.211C223.211 138.273 223.492 137.552 224.055 137.047C224.617 136.536 225.414 136.281 226.445 136.281C226.893 136.281 227.297 136.333 227.656 136.438H230.617ZM223.789 146.438C223.789 146.901 223.984 147.253 224.375 147.492C224.766 147.732 225.326 147.852 226.055 147.852C227.143 147.852 227.948 147.688 228.469 147.359C228.995 147.036 229.258 146.596 229.258 146.039C229.258 145.576 229.115 145.253 228.828 145.07C228.542 144.893 228.003 144.805 227.211 144.805H225.656C225.068 144.805 224.609 144.945 224.281 145.227C223.953 145.508 223.789 145.911 223.789 146.438ZM224.492 139.18C224.492 139.779 224.661 140.232 225 140.539C225.339 140.846 225.81 141 226.414 141C227.68 141 228.312 140.385 228.312 139.156C228.312 137.87 227.672 137.227 226.391 137.227C225.781 137.227 225.312 137.391 224.984 137.719C224.656 138.047 224.492 138.534 224.492 139.18ZM239.766 140.711C239.766 142.107 239.414 143.198 238.711 143.984C238.008 144.766 237.036 145.156 235.797 145.156C235.031 145.156 234.352 144.977 233.758 144.617C233.164 144.258 232.706 143.742 232.383 143.07C232.06 142.398 231.898 141.612 231.898 140.711C231.898 139.315 232.247 138.229 232.945 137.453C233.643 136.672 234.612 136.281 235.852 136.281C237.049 136.281 238 136.68 238.703 137.477C239.411 138.273 239.766 139.352 239.766 140.711ZM233.242 140.711C233.242 141.805 233.461 142.638 233.898 143.211C234.336 143.784 234.979 144.07 235.828 144.07C236.677 144.07 237.32 143.786 237.758 143.219C238.201 142.646 238.422 141.81 238.422 140.711C238.422 139.622 238.201 138.797 237.758 138.234C237.32 137.667 236.672 137.383 235.812 137.383C234.964 137.383 234.323 137.661 233.891 138.219C233.458 138.776 233.242 139.607 233.242 140.711ZM5.35938 171.156C4.80208 171.156 4.29167 171.055 3.82812 170.852C3.36979 170.643 2.98438 170.326 2.67188 169.898H2.57812C2.64062 170.398 2.67188 170.872 2.67188 171.32V174.844H1.375V162.438H2.42969L2.60938 163.609H2.67188C3.00521 163.141 3.39323 162.802 3.83594 162.594C4.27865 162.385 4.78646 162.281 5.35938 162.281C6.49479 162.281 7.36979 162.669 7.98438 163.445C8.60417 164.221 8.91406 165.31 8.91406 166.711C8.91406 168.117 8.59896 169.211 7.96875 169.992C7.34375 170.768 6.47396 171.156 5.35938 171.156ZM5.17188 163.383C4.29688 163.383 3.66406 163.625 3.27344 164.109C2.88281 164.594 2.68229 165.365 2.67188 166.422V166.711C2.67188 167.914 2.8724 168.776 3.27344 169.297C3.67448 169.812 4.31771 170.07 5.20312 170.07C5.94271 170.07 6.52083 169.771 6.9375 169.172C7.35938 168.573 7.57031 167.747 7.57031 166.695C7.57031 165.628 7.35938 164.81 6.9375 164.242C6.52083 163.669 5.93229 163.383 5.17188 163.383ZM12.4844 171H11.1875V158.844H12.4844V171ZM20.5 171L20.2422 169.781H20.1797C19.7526 170.318 19.3255 170.682 18.8984 170.875C18.4766 171.062 17.9479 171.156 17.3125 171.156C16.4635 171.156 15.7969 170.938 15.3125 170.5C14.8333 170.062 14.5938 169.44 14.5938 168.633C14.5938 166.904 15.9766 165.997 18.7422 165.914L20.1953 165.867V165.336C20.1953 164.664 20.0495 164.169 19.7578 163.852C19.4714 163.529 19.0104 163.367 18.375 163.367C17.6615 163.367 16.8542 163.586 15.9531 164.023L15.5547 163.031C15.9766 162.802 16.4375 162.622 16.9375 162.492C17.4427 162.362 17.9479 162.297 18.4531 162.297C19.474 162.297 20.2292 162.523 20.7188 162.977C21.2135 163.43 21.4609 164.156 21.4609 165.156V171H20.5ZM17.5703 170.086C18.3776 170.086 19.0104 169.865 19.4688 169.422C19.9323 168.979 20.1641 168.359 20.1641 167.562V166.789L18.8672 166.844C17.8359 166.88 17.0911 167.042 16.6328 167.328C16.1797 167.609 15.9531 168.049 15.9531 168.648C15.9531 169.117 16.0938 169.474 16.375 169.719C16.6615 169.964 17.0599 170.086 17.5703 170.086ZM22.7812 162.438H24.1719L26.0469 167.32C26.4583 168.435 26.7135 169.24 26.8125 169.734H26.875C26.9427 169.469 27.0833 169.016 27.2969 168.375C27.5156 167.729 28.224 165.75 29.4219 162.438H30.8125L27.1328 172.188C26.7682 173.151 26.3411 173.833 25.8516 174.234C25.3672 174.641 24.7708 174.844 24.0625 174.844C23.6667 174.844 23.276 174.799 22.8906 174.711V173.672C23.1771 173.734 23.4974 173.766 23.8516 173.766C24.7422 173.766 25.3776 173.266 25.7578 172.266L26.2344 171.047L22.7812 162.438ZM33.5 171H32.2031V162.438H33.5V171ZM32.0938 160.117C32.0938 159.82 32.1667 159.604 32.3125 159.469C32.4583 159.328 32.6406 159.258 32.8594 159.258C33.0677 159.258 33.2474 159.328 33.3984 159.469C33.5495 159.609 33.625 159.826 33.625 160.117C33.625 160.409 33.5495 160.628 33.3984 160.773C33.2474 160.914 33.0677 160.984 32.8594 160.984C32.6406 160.984 32.4583 160.914 32.3125 160.773C32.1667 160.628 32.0938 160.409 32.0938 160.117ZM42.1094 171V165.461C42.1094 164.763 41.9505 164.242 41.6328 163.898C41.3151 163.555 40.8177 163.383 40.1406 163.383C39.2448 163.383 38.5885 163.625 38.1719 164.109C37.7552 164.594 37.5469 165.393 37.5469 166.508V171H36.25V162.438H37.3047L37.5156 163.609H37.5781C37.8438 163.188 38.2161 162.862 38.6953 162.633C39.1745 162.398 39.7083 162.281 40.2969 162.281C41.3281 162.281 42.1042 162.531 42.625 163.031C43.1458 163.526 43.4062 164.32 43.4062 165.414V171H42.1094ZM53.0859 162.438V163.258L51.5 163.445C51.6458 163.628 51.776 163.867 51.8906 164.164C52.0052 164.456 52.0625 164.786 52.0625 165.156C52.0625 165.995 51.776 166.664 51.2031 167.164C50.6302 167.664 49.8438 167.914 48.8438 167.914C48.5885 167.914 48.349 167.893 48.125 167.852C47.5729 168.143 47.2969 168.51 47.2969 168.953C47.2969 169.188 47.3932 169.362 47.5859 169.477C47.7786 169.586 48.1094 169.641 48.5781 169.641H50.0938C51.0208 169.641 51.7318 169.836 52.2266 170.227C52.7266 170.617 52.9766 171.185 52.9766 171.93C52.9766 172.878 52.5964 173.599 51.8359 174.094C51.0755 174.594 49.9661 174.844 48.5078 174.844C47.388 174.844 46.5234 174.635 45.9141 174.219C45.3099 173.802 45.0078 173.214 45.0078 172.453C45.0078 171.932 45.1745 171.482 45.5078 171.102C45.8411 170.721 46.3099 170.464 46.9141 170.328C46.6953 170.229 46.5104 170.076 46.3594 169.867C46.2135 169.659 46.1406 169.417 46.1406 169.141C46.1406 168.828 46.224 168.555 46.3906 168.32C46.5573 168.086 46.8203 167.859 47.1797 167.641C46.737 167.458 46.375 167.148 46.0938 166.711C45.8177 166.273 45.6797 165.773 45.6797 165.211C45.6797 164.273 45.9609 163.552 46.5234 163.047C47.0859 162.536 47.8828 162.281 48.9141 162.281C49.362 162.281 49.7656 162.333 50.125 162.438H53.0859ZM46.2578 172.438C46.2578 172.901 46.4531 173.253 46.8438 173.492C47.2344 173.732 47.7943 173.852 48.5234 173.852C49.612 173.852 50.4167 173.688 50.9375 173.359C51.4635 173.036 51.7266 172.596 51.7266 172.039C51.7266 171.576 51.5833 171.253 51.2969 171.07C51.0104 170.893 50.4714 170.805 49.6797 170.805H48.125C47.5365 170.805 47.0781 170.945 46.75 171.227C46.4219 171.508 46.2578 171.911 46.2578 172.438ZM46.9609 165.18C46.9609 165.779 47.1302 166.232 47.4688 166.539C47.8073 166.846 48.2786 167 48.8828 167C50.1484 167 50.7812 166.385 50.7812 165.156C50.7812 163.87 50.1406 163.227 48.8594 163.227C48.25 163.227 47.7812 163.391 47.4531 163.719C47.125 164.047 46.9609 164.534 46.9609 165.18ZM62.8594 163.445H60.6797V171H59.3828V163.445H57.8516V162.859L59.3828 162.391V161.914C59.3828 159.81 60.3021 158.758 62.1406 158.758C62.5938 158.758 63.125 158.849 63.7344 159.031L63.3984 160.07C62.8984 159.909 62.4714 159.828 62.1172 159.828C61.6276 159.828 61.2656 159.992 61.0312 160.32C60.7969 160.643 60.6797 161.164 60.6797 161.883V162.438H62.8594V163.445ZM71.8125 166.711C71.8125 168.107 71.4609 169.198 70.7578 169.984C70.0547 170.766 69.0833 171.156 67.8438 171.156C67.0781 171.156 66.3984 170.977 65.8047 170.617C65.2109 170.258 64.7526 169.742 64.4297 169.07C64.1068 168.398 63.9453 167.612 63.9453 166.711C63.9453 165.315 64.2943 164.229 64.9922 163.453C65.6901 162.672 66.6589 162.281 67.8984 162.281C69.0964 162.281 70.0469 162.68 70.75 163.477C71.4583 164.273 71.8125 165.352 71.8125 166.711ZM65.2891 166.711C65.2891 167.805 65.5078 168.638 65.9453 169.211C66.3828 169.784 67.026 170.07 67.875 170.07C68.724 170.07 69.3672 169.786 69.8047 169.219C70.2474 168.646 70.4688 167.81 70.4688 166.711C70.4688 165.622 70.2474 164.797 69.8047 164.234C69.3672 163.667 68.7188 163.383 67.8594 163.383C67.0104 163.383 66.3698 163.661 65.9375 164.219C65.5052 164.776 65.2891 165.607 65.2891 166.711ZM78 162.281C78.3802 162.281 78.7214 162.312 79.0234 162.375L78.8438 163.578C78.4896 163.5 78.1771 163.461 77.9062 163.461C77.2135 163.461 76.6198 163.742 76.125 164.305C75.6354 164.867 75.3906 165.568 75.3906 166.406V171H74.0938V162.438H75.1641L75.3125 164.023H75.375C75.6927 163.466 76.0755 163.036 76.5234 162.734C76.9714 162.432 77.4635 162.281 78 162.281ZM87.5469 170.086C87.776 170.086 87.9974 170.07 88.2109 170.039C88.4245 170.003 88.5938 169.966 88.7188 169.93V170.922C88.5781 170.99 88.3698 171.044 88.0938 171.086C87.8229 171.133 87.5781 171.156 87.3594 171.156C85.7031 171.156 84.875 170.284 84.875 168.539V163.445H83.6484V162.82L84.875 162.281L85.4219 160.453H86.1719V162.438H88.6562V163.445H86.1719V168.484C86.1719 169 86.2943 169.396 86.5391 169.672C86.7839 169.948 87.1198 170.086 87.5469 170.086ZM96.2969 171V165.461C96.2969 164.763 96.138 164.242 95.8203 163.898C95.5026 163.555 95.0052 163.383 94.3281 163.383C93.4271 163.383 92.7682 163.628 92.3516 164.117C91.9401 164.607 91.7344 165.409 91.7344 166.523V171H90.4375V158.844H91.7344V162.523C91.7344 162.966 91.7135 163.333 91.6719 163.625H91.75C92.0052 163.214 92.3672 162.891 92.8359 162.656C93.3099 162.417 93.849 162.297 94.4531 162.297C95.5 162.297 96.2839 162.547 96.8047 163.047C97.3307 163.542 97.5938 164.331 97.5938 165.414V171H96.2969ZM103.883 171.156C102.617 171.156 101.617 170.771 100.883 170C100.154 169.229 99.7891 168.159 99.7891 166.789C99.7891 165.409 100.128 164.312 100.805 163.5C101.487 162.688 102.401 162.281 103.547 162.281C104.62 162.281 105.469 162.635 106.094 163.344C106.719 164.047 107.031 164.977 107.031 166.133V166.953H101.133C101.159 167.958 101.411 168.721 101.891 169.242C102.375 169.763 103.055 170.023 103.93 170.023C104.852 170.023 105.763 169.831 106.664 169.445V170.602C106.206 170.799 105.771 170.94 105.359 171.023C104.953 171.112 104.461 171.156 103.883 171.156ZM103.531 163.367C102.844 163.367 102.294 163.591 101.883 164.039C101.477 164.487 101.237 165.107 101.164 165.898H105.641C105.641 165.081 105.458 164.456 105.094 164.023C104.729 163.586 104.208 163.367 103.531 163.367ZM117.266 163.445H115.086V171H113.789V163.445H112.258V162.859L113.789 162.391V161.914C113.789 159.81 114.708 158.758 116.547 158.758C117 158.758 117.531 158.849 118.141 159.031L117.805 160.07C117.305 159.909 116.878 159.828 116.523 159.828C116.034 159.828 115.672 159.992 115.438 160.32C115.203 160.643 115.086 161.164 115.086 161.883V162.438H117.266V163.445ZM120.047 162.438V167.992C120.047 168.69 120.206 169.211 120.523 169.555C120.841 169.898 121.339 170.07 122.016 170.07C122.911 170.07 123.565 169.826 123.977 169.336C124.393 168.846 124.602 168.047 124.602 166.938V162.438H125.898V171H124.828L124.641 169.852H124.57C124.305 170.273 123.935 170.596 123.461 170.82C122.992 171.044 122.456 171.156 121.852 171.156C120.81 171.156 120.029 170.909 119.508 170.414C118.992 169.919 118.734 169.128 118.734 168.039V162.438H120.047ZM134.516 171V165.461C134.516 164.763 134.357 164.242 134.039 163.898C133.721 163.555 133.224 163.383 132.547 163.383C131.651 163.383 130.995 163.625 130.578 164.109C130.161 164.594 129.953 165.393 129.953 166.508V171H128.656V162.438H129.711L129.922 163.609H129.984C130.25 163.188 130.622 162.862 131.102 162.633C131.581 162.398 132.115 162.281 132.703 162.281C133.734 162.281 134.51 162.531 135.031 163.031C135.552 163.526 135.812 164.32 135.812 165.414V171H134.516Z" fill="#544837"/>
<path d="M14.8457 95.9971C14.8457 98.5895 14.126 100.573 12.6865 101.948C11.2471 103.316 9.17383 104 6.4668 104H2.07324V88.2949H6.92871C9.42806 88.2949 11.3724 88.9681 12.7617 90.3145C14.151 91.6608 14.8457 93.555 14.8457 95.9971ZM12.1387 96.083C12.1387 92.3232 10.3805 90.4434 6.86426 90.4434H4.64062V101.841H6.4668C10.248 101.841 12.1387 99.9215 12.1387 96.083ZM23.1494 104.215C21.3018 104.215 19.8551 103.678 18.8096 102.604C17.7712 101.522 17.252 100.036 17.252 98.1455C17.252 96.2048 17.7354 94.6794 18.7021 93.5693C19.6689 92.4593 20.9974 91.9043 22.6875 91.9043C24.2559 91.9043 25.4948 92.3805 26.4043 93.333C27.3138 94.2855 27.7686 95.596 27.7686 97.2646V98.6289H19.8516C19.8874 99.7819 20.1989 100.67 20.7861 101.293C21.3734 101.909 22.2005 102.217 23.2676 102.217C23.9694 102.217 24.6211 102.152 25.2227 102.023C25.8314 101.887 26.4831 101.665 27.1777 101.357V103.409C26.5618 103.703 25.9388 103.91 25.3086 104.032C24.6784 104.154 23.9587 104.215 23.1494 104.215ZM22.6875 93.8164C21.8854 93.8164 21.2409 94.0706 20.7539 94.5791C20.2741 95.0876 19.9876 95.8288 19.8945 96.8027H25.2871C25.2728 95.8216 25.0365 95.0804 24.5781 94.5791C24.1198 94.0706 23.4896 93.8164 22.6875 93.8164ZM38.6182 100.616C38.6182 101.776 38.1956 102.668 37.3506 103.291C36.5055 103.907 35.2952 104.215 33.7197 104.215C32.137 104.215 30.8659 103.975 29.9062 103.495V101.314C31.3027 101.959 32.6025 102.281 33.8057 102.281C35.3597 102.281 36.1367 101.812 36.1367 100.874C36.1367 100.573 36.0508 100.323 35.8789 100.122C35.707 99.9215 35.4242 99.7139 35.0303 99.499C34.6364 99.2842 34.0885 99.0407 33.3867 98.7686C32.0189 98.2386 31.0915 97.7087 30.6045 97.1787C30.1247 96.6488 29.8848 95.9613 29.8848 95.1162C29.8848 94.0993 30.293 93.3115 31.1094 92.7529C31.9329 92.1872 33.0501 91.9043 34.4609 91.9043C35.8574 91.9043 37.1787 92.1872 38.4248 92.7529L37.6084 94.6543C36.3265 94.1243 35.2487 93.8594 34.375 93.8594C33.043 93.8594 32.377 94.2389 32.377 94.998C32.377 95.3704 32.5488 95.6855 32.8926 95.9434C33.2435 96.2012 34.0026 96.5557 35.1699 97.0068C36.151 97.3864 36.8636 97.7337 37.3076 98.0488C37.7516 98.3639 38.0811 98.7292 38.2959 99.1445C38.5107 99.5527 38.6182 100.043 38.6182 100.616ZM43.8818 104H41.3574V92.1191H43.8818V104ZM41.207 88.9717C41.207 88.5205 41.3288 88.1732 41.5723 87.9297C41.8229 87.6862 42.1774 87.5645 42.6357 87.5645C43.0798 87.5645 43.4235 87.6862 43.667 87.9297C43.9176 88.1732 44.043 88.5205 44.043 88.9717C44.043 89.4014 43.9176 89.7415 43.667 89.9922C43.4235 90.2357 43.0798 90.3574 42.6357 90.3574C42.1774 90.3574 41.8229 90.2357 41.5723 89.9922C41.3288 89.7415 41.207 89.4014 41.207 88.9717ZM57.5352 92.1191V93.5049L55.5049 93.8809C55.6911 94.1315 55.8451 94.4395 55.9668 94.8047C56.0885 95.1699 56.1494 95.5566 56.1494 95.9648C56.1494 97.1895 55.7269 98.1527 54.8818 98.8545C54.0368 99.5563 52.873 99.9072 51.3906 99.9072C51.0111 99.9072 50.6673 99.8786 50.3594 99.8213C49.8151 100.158 49.543 100.552 49.543 101.003C49.543 101.275 49.6683 101.479 49.9189 101.615C50.1768 101.751 50.6458 101.819 51.3262 101.819H53.3994C54.71 101.819 55.7054 102.099 56.3857 102.657C57.0661 103.216 57.4062 104.021 57.4062 105.074C57.4062 106.421 56.8512 107.459 55.7412 108.189C54.6312 108.92 53.027 109.285 50.9287 109.285C49.3102 109.285 48.0749 108.999 47.2227 108.426C46.3704 107.853 45.9443 107.036 45.9443 105.977C45.9443 105.246 46.1735 104.63 46.6318 104.129C47.0973 103.635 47.7454 103.291 48.5762 103.098C48.2396 102.954 47.9603 102.725 47.7383 102.41C47.5234 102.088 47.416 101.751 47.416 101.4C47.416 100.956 47.5413 100.58 47.792 100.272C48.0426 99.9645 48.415 99.6602 48.9092 99.3594C48.2933 99.0944 47.792 98.6647 47.4053 98.0703C47.0257 97.4688 46.8359 96.7669 46.8359 95.9648C46.8359 94.6758 47.2406 93.6768 48.0498 92.9678C48.8662 92.2588 50.0264 91.9043 51.5303 91.9043C51.8669 91.9043 52.2178 91.9294 52.583 91.9795C52.9554 92.0225 53.2347 92.069 53.4209 92.1191H57.5352ZM48.2002 105.848C48.2002 106.392 48.4437 106.811 48.9307 107.104C49.4248 107.398 50.1159 107.545 51.0039 107.545C52.3789 107.545 53.403 107.348 54.0762 106.954C54.7493 106.56 55.0859 106.037 55.0859 105.386C55.0859 104.87 54.8997 104.501 54.5273 104.279C54.1621 104.064 53.4782 103.957 52.4756 103.957H50.5635C49.8402 103.957 49.2637 104.125 48.834 104.462C48.4115 104.806 48.2002 105.268 48.2002 105.848ZM49.2852 95.9648C49.2852 96.7096 49.4749 97.2826 49.8545 97.6836C50.2412 98.0846 50.7926 98.2852 51.5088 98.2852C52.9697 98.2852 53.7002 97.5046 53.7002 95.9434C53.7002 95.1699 53.5176 94.5755 53.1523 94.1602C52.7943 93.7376 52.2464 93.5264 51.5088 93.5264C50.7783 93.5264 50.2233 93.734 49.8438 94.1494C49.4714 94.5648 49.2852 95.1699 49.2852 95.9648ZM70.2002 104H67.665V96.6953C67.665 95.7786 67.4788 95.0947 67.1064 94.6436C66.7412 94.1924 66.1576 93.9668 65.3555 93.9668C64.2884 93.9668 63.5078 94.2819 63.0137 94.9121C62.5195 95.5423 62.2725 96.5986 62.2725 98.0811V104H59.748V92.1191H61.7246L62.0791 93.6768H62.208C62.5661 93.111 63.0745 92.6742 63.7334 92.3662C64.3923 92.0583 65.1227 91.9043 65.9248 91.9043C68.7751 91.9043 70.2002 93.3545 70.2002 96.2549V104ZM87.4092 100.616C87.4092 101.776 86.9867 102.668 86.1416 103.291C85.2965 103.907 84.0863 104.215 82.5107 104.215C80.9281 104.215 79.6569 103.975 78.6973 103.495V101.314C80.0938 101.959 81.3936 102.281 82.5967 102.281C84.1507 102.281 84.9277 101.812 84.9277 100.874C84.9277 100.573 84.8418 100.323 84.6699 100.122C84.498 99.9215 84.2152 99.7139 83.8213 99.499C83.4274 99.2842 82.8796 99.0407 82.1777 98.7686C80.8099 98.2386 79.8825 97.7087 79.3955 97.1787C78.9157 96.6488 78.6758 95.9613 78.6758 95.1162C78.6758 94.0993 79.084 93.3115 79.9004 92.7529C80.724 92.1872 81.8411 91.9043 83.252 91.9043C84.6484 91.9043 85.9697 92.1872 87.2158 92.7529L86.3994 94.6543C85.1175 94.1243 84.0397 93.8594 83.166 93.8594C81.834 93.8594 81.168 94.2389 81.168 94.998C81.168 95.3704 81.3398 95.6855 81.6836 95.9434C82.0345 96.2012 82.7936 96.5557 83.9609 97.0068C84.9421 97.3864 85.6546 97.7337 86.0986 98.0488C86.5426 98.3639 86.8721 98.7292 87.0869 99.1445C87.3018 99.5527 87.4092 100.043 87.4092 100.616ZM98.5273 104L98.1729 102.442H98.0439C97.693 102.994 97.1917 103.427 96.54 103.742C95.8955 104.057 95.1579 104.215 94.3271 104.215C92.8877 104.215 91.8135 103.857 91.1045 103.141C90.3955 102.424 90.041 101.34 90.041 99.8857V92.1191H92.5869V99.4453C92.5869 100.355 92.7731 101.039 93.1455 101.497C93.5179 101.948 94.1016 102.174 94.8965 102.174C95.9564 102.174 96.7334 101.859 97.2275 101.229C97.7288 100.591 97.9795 99.5277 97.9795 98.0381V92.1191H100.515V104H98.5273ZM110.14 91.9043C110.648 91.9043 111.067 91.9401 111.396 92.0117L111.149 94.3643C110.791 94.2783 110.419 94.2354 110.032 94.2354C109.022 94.2354 108.202 94.5648 107.572 95.2236C106.949 95.8825 106.638 96.7383 106.638 97.791V104H104.113V92.1191H106.09L106.423 94.2139H106.552C106.946 93.5049 107.458 92.9427 108.088 92.5273C108.725 92.112 109.409 91.9043 110.14 91.9043ZM116.316 104L111.805 92.1191H114.469L116.886 99.0264C117.301 100.187 117.552 101.125 117.638 101.841H117.724C117.788 101.325 118.039 100.387 118.476 99.0264L120.893 92.1191H123.578L119.045 104H116.316ZM130.571 104.215C128.724 104.215 127.277 103.678 126.231 102.604C125.193 101.522 124.674 100.036 124.674 98.1455C124.674 96.2048 125.157 94.6794 126.124 93.5693C127.091 92.4593 128.419 91.9043 130.109 91.9043C131.678 91.9043 132.917 92.3805 133.826 93.333C134.736 94.2855 135.19 95.596 135.19 97.2646V98.6289H127.273C127.309 99.7819 127.621 100.67 128.208 101.293C128.795 101.909 129.622 102.217 130.689 102.217C131.391 102.217 132.043 102.152 132.645 102.023C133.253 101.887 133.905 101.665 134.6 101.357V103.409C133.984 103.703 133.361 103.91 132.73 104.032C132.1 104.154 131.381 104.215 130.571 104.215ZM130.109 93.8164C129.307 93.8164 128.663 94.0706 128.176 94.5791C127.696 95.0876 127.41 95.8288 127.316 96.8027H132.709C132.695 95.8216 132.458 95.0804 132 94.5791C131.542 94.0706 130.911 93.8164 130.109 93.8164ZM136.254 92.1191H139.004L141.421 98.8545C141.786 99.8141 142.03 100.716 142.151 101.562H142.237C142.302 101.168 142.42 100.691 142.592 100.133C142.764 99.5671 143.673 96.8958 145.32 92.1191H148.049L142.968 105.579C142.044 108.05 140.504 109.285 138.349 109.285C137.79 109.285 137.246 109.224 136.716 109.103V107.104C137.095 107.19 137.529 107.233 138.016 107.233C139.233 107.233 140.089 106.528 140.583 105.117L141.023 104L136.254 92.1191ZM157.835 100.616C157.835 101.776 157.412 102.668 156.567 103.291C155.722 103.907 154.512 104.215 152.937 104.215C151.354 104.215 150.083 103.975 149.123 103.495V101.314C150.52 101.959 151.819 102.281 153.022 102.281C154.576 102.281 155.354 101.812 155.354 100.874C155.354 100.573 155.268 100.323 155.096 100.122C154.924 99.9215 154.641 99.7139 154.247 99.499C153.853 99.2842 153.305 99.0407 152.604 98.7686C151.236 98.2386 150.308 97.7087 149.821 97.1787C149.341 96.6488 149.102 95.9613 149.102 95.1162C149.102 94.0993 149.51 93.3115 150.326 92.7529C151.15 92.1872 152.267 91.9043 153.678 91.9043C155.074 91.9043 156.396 92.1872 157.642 92.7529L156.825 94.6543C155.543 94.1243 154.465 93.8594 153.592 93.8594C152.26 93.8594 151.594 94.2389 151.594 94.998C151.594 95.3704 151.766 95.6855 152.109 95.9434C152.46 96.2012 153.219 96.5557 154.387 97.0068C155.368 97.3864 156.08 97.7337 156.524 98.0488C156.968 98.3639 157.298 98.7292 157.513 99.1445C157.728 99.5527 157.835 100.043 157.835 100.616Z" fill="#2F281E"/>
</g>
<defs>
<clipPath id="clip0_2_734">
<rect width="262.356" height="98" fill="white" transform="translate(0 80)"/>
</clipPath>
</defs>
</svg>
