<svg width="263" height="178" viewBox="0 0 263 178" fill="none" xmlns="http://www.w3.org/2000/svg">
<rect width="50" height="50" rx="19" fill="#F03E3D"/>
<path d="M25.5836 33.1429C25.7264 33.1429 25.8693 33.0893 25.9764 32.9821L31.5389 27.625C31.6193 27.5446 33.5836 25.75 33.5836 23.6071C33.5836 20.9911 31.9853 19.4286 29.3157 19.4286C27.7532 19.4286 26.2889 20.6607 25.5836 21.3571C24.8782 20.6607 23.4139 19.4286 21.8514 19.4286C19.1818 19.4286 17.5836 20.9911 17.5836 23.6071C17.5836 25.75 19.5478 27.5446 19.6193 27.6071L25.1907 32.9821C25.2978 33.0893 25.4407 33.1429 25.5836 33.1429Z" fill="white"/>
<g clip-path="url(#clip0_2_742)">
<path d="M5.08594 145H3.75781V134.758H0.140625V133.578H8.70312V134.758H5.08594V145ZM16.0938 145V139.461C16.0938 138.763 15.9349 138.242 15.6172 137.898C15.2995 137.555 14.8021 137.383 14.125 137.383C13.224 137.383 12.5651 137.628 12.1484 138.117C11.737 138.607 11.5312 139.409 11.5312 140.523V145H10.2344V132.844H11.5312V136.523C11.5312 136.966 11.5104 137.333 11.4688 137.625H11.5469C11.8021 137.214 12.1641 136.891 12.6328 136.656C13.1068 136.417 13.6458 136.297 14.25 136.297C15.2969 136.297 16.0807 136.547 16.6016 137.047C17.1276 137.542 17.3906 138.331 17.3906 139.414V145H16.0938ZM23.6797 145.156C22.4141 145.156 21.4141 144.771 20.6797 144C19.9505 143.229 19.5859 142.159 19.5859 140.789C19.5859 139.409 19.9245 138.312 20.6016 137.5C21.2839 136.688 22.1979 136.281 23.3438 136.281C24.4167 136.281 25.2656 136.635 25.8906 137.344C26.5156 138.047 26.8281 138.977 26.8281 140.133V140.953H20.9297C20.9557 141.958 21.2083 142.721 21.6875 143.242C22.1719 143.763 22.8516 144.023 23.7266 144.023C24.6484 144.023 25.5599 143.831 26.4609 143.445V144.602C26.0026 144.799 25.5677 144.94 25.1562 145.023C24.75 145.112 24.2578 145.156 23.6797 145.156ZM23.3281 137.367C22.6406 137.367 22.0911 137.591 21.6797 138.039C21.2734 138.487 21.0339 139.107 20.9609 139.898H25.4375C25.4375 139.081 25.2552 138.456 24.8906 138.023C24.526 137.586 24.0052 137.367 23.3281 137.367ZM38.4531 145L34.5781 134.875H34.5156C34.5885 135.677 34.625 136.63 34.625 137.734V145H33.3984V133.578H35.3984L39.0156 143H39.0781L42.7266 133.578H44.7109V145H43.3828V137.641C43.3828 136.797 43.4193 135.88 43.4922 134.891H43.4297L39.5234 145H38.4531ZM46.2969 136.438H47.6875L49.5625 141.32C49.974 142.435 50.2292 143.24 50.3281 143.734H50.3906C50.4583 143.469 50.599 143.016 50.8125 142.375C51.0312 141.729 51.7396 139.75 52.9375 136.438H54.3281L50.6484 146.188C50.2839 147.151 49.8568 147.833 49.3672 148.234C48.8828 148.641 48.2865 148.844 47.5781 148.844C47.1823 148.844 46.7917 148.799 46.4062 148.711V147.672C46.6927 147.734 47.013 147.766 47.3672 147.766C48.2578 147.766 48.8932 147.266 49.2734 146.266L49.75 145.047L46.2969 136.438ZM61.2422 142.664C61.2422 143.461 60.9453 144.076 60.3516 144.508C59.7578 144.94 58.9245 145.156 57.8516 145.156C56.7161 145.156 55.8307 144.977 55.1953 144.617V143.414C55.6068 143.622 56.0469 143.786 56.5156 143.906C56.9896 144.026 57.4453 144.086 57.8828 144.086C58.5599 144.086 59.0807 143.979 59.4453 143.766C59.8099 143.547 59.9922 143.216 59.9922 142.773C59.9922 142.44 59.8464 142.156 59.5547 141.922C59.2682 141.682 58.7057 141.401 57.8672 141.078C57.0703 140.781 56.5026 140.523 56.1641 140.305C55.8307 140.081 55.5807 139.828 55.4141 139.547C55.2526 139.266 55.1719 138.93 55.1719 138.539C55.1719 137.841 55.4557 137.292 56.0234 136.891C56.5911 136.484 57.3698 136.281 58.3594 136.281C59.2812 136.281 60.1823 136.469 61.0625 136.844L60.6016 137.898C59.7422 137.544 58.9635 137.367 58.2656 137.367C57.651 137.367 57.1875 137.464 56.875 137.656C56.5625 137.849 56.4062 138.115 56.4062 138.453C56.4062 138.682 56.4635 138.878 56.5781 139.039C56.6979 139.201 56.888 139.354 57.1484 139.5C57.4089 139.646 57.9089 139.857 58.6484 140.133C59.6641 140.503 60.349 140.875 60.7031 141.25C61.0625 141.625 61.2422 142.096 61.2422 142.664ZM67.3438 145.156C66.7865 145.156 66.276 145.055 65.8125 144.852C65.3542 144.643 64.9688 144.326 64.6562 143.898H64.5625C64.625 144.398 64.6562 144.872 64.6562 145.32V148.844H63.3594V136.438H64.4141L64.5938 137.609H64.6562C64.9896 137.141 65.3776 136.802 65.8203 136.594C66.263 136.385 66.7708 136.281 67.3438 136.281C68.4792 136.281 69.3542 136.669 69.9688 137.445C70.5885 138.221 70.8984 139.31 70.8984 140.711C70.8984 142.117 70.5833 143.211 69.9531 143.992C69.3281 144.768 68.4583 145.156 67.3438 145.156ZM67.1562 137.383C66.2812 137.383 65.6484 137.625 65.2578 138.109C64.8672 138.594 64.6667 139.365 64.6562 140.422V140.711C64.6562 141.914 64.8568 142.776 65.2578 143.297C65.6589 143.812 66.3021 144.07 67.1875 144.07C67.9271 144.07 68.5052 143.771 68.9219 143.172C69.3438 142.573 69.5547 141.747 69.5547 140.695C69.5547 139.628 69.3438 138.81 68.9219 138.242C68.5052 137.669 67.9167 137.383 67.1562 137.383ZM78.4375 145L78.1797 143.781H78.1172C77.6901 144.318 77.263 144.682 76.8359 144.875C76.4141 145.062 75.8854 145.156 75.25 145.156C74.401 145.156 73.7344 144.938 73.25 144.5C72.7708 144.062 72.5312 143.44 72.5312 142.633C72.5312 140.904 73.9141 139.997 76.6797 139.914L78.1328 139.867V139.336C78.1328 138.664 77.987 138.169 77.6953 137.852C77.4089 137.529 76.9479 137.367 76.3125 137.367C75.599 137.367 74.7917 137.586 73.8906 138.023L73.4922 137.031C73.9141 136.802 74.375 136.622 74.875 136.492C75.3802 136.362 75.8854 136.297 76.3906 136.297C77.4115 136.297 78.1667 136.523 78.6562 136.977C79.151 137.43 79.3984 138.156 79.3984 139.156V145H78.4375ZM75.5078 144.086C76.3151 144.086 76.9479 143.865 77.4062 143.422C77.8698 142.979 78.1016 142.359 78.1016 141.562V140.789L76.8047 140.844C75.7734 140.88 75.0286 141.042 74.5703 141.328C74.1172 141.609 73.8906 142.049 73.8906 142.648C73.8906 143.117 74.0312 143.474 74.3125 143.719C74.599 143.964 74.9974 144.086 75.5078 144.086ZM85.5 145.156C84.2604 145.156 83.2995 144.776 82.6172 144.016C81.9401 143.25 81.6016 142.169 81.6016 140.773C81.6016 139.341 81.9453 138.234 82.6328 137.453C83.3255 136.672 84.3099 136.281 85.5859 136.281C85.9974 136.281 86.4089 136.326 86.8203 136.414C87.2318 136.503 87.5547 136.607 87.7891 136.727L87.3906 137.828C87.1042 137.714 86.7917 137.62 86.4531 137.547C86.1146 137.469 85.8151 137.43 85.5547 137.43C83.8151 137.43 82.9453 138.539 82.9453 140.758C82.9453 141.81 83.1562 142.617 83.5781 143.18C84.0052 143.742 84.6354 144.023 85.4688 144.023C86.1823 144.023 86.9141 143.87 87.6641 143.562V144.711C87.0911 145.008 86.3698 145.156 85.5 145.156ZM93.3203 145.156C92.0547 145.156 91.0547 144.771 90.3203 144C89.5911 143.229 89.2266 142.159 89.2266 140.789C89.2266 139.409 89.5651 138.312 90.2422 137.5C90.9245 136.688 91.8385 136.281 92.9844 136.281C94.0573 136.281 94.9062 136.635 95.5312 137.344C96.1562 138.047 96.4688 138.977 96.4688 140.133V140.953H90.5703C90.5964 141.958 90.849 142.721 91.3281 143.242C91.8125 143.763 92.4922 144.023 93.3672 144.023C94.2891 144.023 95.2005 143.831 96.1016 143.445V144.602C95.6432 144.799 95.2083 144.94 94.7969 145.023C94.3906 145.112 93.8984 145.156 93.3203 145.156ZM92.9688 137.367C92.2812 137.367 91.7318 137.591 91.3203 138.039C90.9141 138.487 90.6745 139.107 90.6016 139.898H95.0781C95.0781 139.081 94.8958 138.456 94.5312 138.023C94.1667 137.586 93.6458 137.367 92.9688 137.367ZM106.828 145.156C106.271 145.156 105.76 145.055 105.297 144.852C104.839 144.643 104.453 144.326 104.141 143.898H104.047C104.109 144.398 104.141 144.872 104.141 145.32V148.844H102.844V136.438H103.898L104.078 137.609H104.141C104.474 137.141 104.862 136.802 105.305 136.594C105.747 136.385 106.255 136.281 106.828 136.281C107.964 136.281 108.839 136.669 109.453 137.445C110.073 138.221 110.383 139.31 110.383 140.711C110.383 142.117 110.068 143.211 109.438 143.992C108.812 144.768 107.943 145.156 106.828 145.156ZM106.641 137.383C105.766 137.383 105.133 137.625 104.742 138.109C104.352 138.594 104.151 139.365 104.141 140.422V140.711C104.141 141.914 104.341 142.776 104.742 143.297C105.143 143.812 105.786 144.07 106.672 144.07C107.411 144.07 107.99 143.771 108.406 143.172C108.828 142.573 109.039 141.747 109.039 140.695C109.039 139.628 108.828 138.81 108.406 138.242C107.99 137.669 107.401 137.383 106.641 137.383ZM117.922 145L117.664 143.781H117.602C117.174 144.318 116.747 144.682 116.32 144.875C115.898 145.062 115.37 145.156 114.734 145.156C113.885 145.156 113.219 144.938 112.734 144.5C112.255 144.062 112.016 143.44 112.016 142.633C112.016 140.904 113.398 139.997 116.164 139.914L117.617 139.867V139.336C117.617 138.664 117.471 138.169 117.18 137.852C116.893 137.529 116.432 137.367 115.797 137.367C115.083 137.367 114.276 137.586 113.375 138.023L112.977 137.031C113.398 136.802 113.859 136.622 114.359 136.492C114.865 136.362 115.37 136.297 115.875 136.297C116.896 136.297 117.651 136.523 118.141 136.977C118.635 137.43 118.883 138.156 118.883 139.156V145H117.922ZM114.992 144.086C115.799 144.086 116.432 143.865 116.891 143.422C117.354 142.979 117.586 142.359 117.586 141.562V140.789L116.289 140.844C115.258 140.88 114.513 141.042 114.055 141.328C113.602 141.609 113.375 142.049 113.375 142.648C113.375 143.117 113.516 143.474 113.797 143.719C114.083 143.964 114.482 144.086 114.992 144.086ZM128.57 136.438V137.258L126.984 137.445C127.13 137.628 127.26 137.867 127.375 138.164C127.49 138.456 127.547 138.786 127.547 139.156C127.547 139.995 127.26 140.664 126.688 141.164C126.115 141.664 125.328 141.914 124.328 141.914C124.073 141.914 123.833 141.893 123.609 141.852C123.057 142.143 122.781 142.51 122.781 142.953C122.781 143.188 122.878 143.362 123.07 143.477C123.263 143.586 123.594 143.641 124.062 143.641H125.578C126.505 143.641 127.216 143.836 127.711 144.227C128.211 144.617 128.461 145.185 128.461 145.93C128.461 146.878 128.081 147.599 127.32 148.094C126.56 148.594 125.451 148.844 123.992 148.844C122.872 148.844 122.008 148.635 121.398 148.219C120.794 147.802 120.492 147.214 120.492 146.453C120.492 145.932 120.659 145.482 120.992 145.102C121.326 144.721 121.794 144.464 122.398 144.328C122.18 144.229 121.995 144.076 121.844 143.867C121.698 143.659 121.625 143.417 121.625 143.141C121.625 142.828 121.708 142.555 121.875 142.32C122.042 142.086 122.305 141.859 122.664 141.641C122.221 141.458 121.859 141.148 121.578 140.711C121.302 140.273 121.164 139.773 121.164 139.211C121.164 138.273 121.445 137.552 122.008 137.047C122.57 136.536 123.367 136.281 124.398 136.281C124.846 136.281 125.25 136.333 125.609 136.438H128.57ZM121.742 146.438C121.742 146.901 121.938 147.253 122.328 147.492C122.719 147.732 123.279 147.852 124.008 147.852C125.096 147.852 125.901 147.688 126.422 147.359C126.948 147.036 127.211 146.596 127.211 146.039C127.211 145.576 127.068 145.253 126.781 145.07C126.495 144.893 125.956 144.805 125.164 144.805H123.609C123.021 144.805 122.562 144.945 122.234 145.227C121.906 145.508 121.742 145.911 121.742 146.438ZM122.445 139.18C122.445 139.779 122.615 140.232 122.953 140.539C123.292 140.846 123.763 141 124.367 141C125.633 141 126.266 140.385 126.266 139.156C126.266 137.87 125.625 137.227 124.344 137.227C123.734 137.227 123.266 137.391 122.938 137.719C122.609 138.047 122.445 138.534 122.445 139.18ZM133.945 145.156C132.68 145.156 131.68 144.771 130.945 144C130.216 143.229 129.852 142.159 129.852 140.789C129.852 139.409 130.19 138.312 130.867 137.5C131.549 136.688 132.464 136.281 133.609 136.281C134.682 136.281 135.531 136.635 136.156 137.344C136.781 138.047 137.094 138.977 137.094 140.133V140.953H131.195C131.221 141.958 131.474 142.721 131.953 143.242C132.438 143.763 133.117 144.023 133.992 144.023C134.914 144.023 135.826 143.831 136.727 143.445V144.602C136.268 144.799 135.833 144.94 135.422 145.023C135.016 145.112 134.523 145.156 133.945 145.156ZM133.594 137.367C132.906 137.367 132.357 137.591 131.945 138.039C131.539 138.487 131.299 139.107 131.227 139.898H135.703C135.703 139.081 135.521 138.456 135.156 138.023C134.792 137.586 134.271 137.367 133.594 137.367ZM149.297 143.852H149.227C148.628 144.721 147.732 145.156 146.539 145.156C145.419 145.156 144.547 144.773 143.922 144.008C143.302 143.242 142.992 142.154 142.992 140.742C142.992 139.331 143.305 138.234 143.93 137.453C144.555 136.672 145.424 136.281 146.539 136.281C147.701 136.281 148.591 136.703 149.211 137.547H149.312L149.258 136.93L149.227 136.328V132.844H150.523V145H149.469L149.297 143.852ZM146.703 144.07C147.589 144.07 148.229 143.831 148.625 143.352C149.026 142.867 149.227 142.089 149.227 141.016V140.742C149.227 139.529 149.023 138.664 148.617 138.148C148.216 137.628 147.573 137.367 146.688 137.367C145.927 137.367 145.344 137.664 144.938 138.258C144.536 138.846 144.336 139.68 144.336 140.758C144.336 141.852 144.536 142.677 144.938 143.234C145.339 143.792 145.927 144.07 146.703 144.07ZM156.898 145.156C155.633 145.156 154.633 144.771 153.898 144C153.169 143.229 152.805 142.159 152.805 140.789C152.805 139.409 153.143 138.312 153.82 137.5C154.503 136.688 155.417 136.281 156.562 136.281C157.635 136.281 158.484 136.635 159.109 137.344C159.734 138.047 160.047 138.977 160.047 140.133V140.953H154.148C154.174 141.958 154.427 142.721 154.906 143.242C155.391 143.763 156.07 144.023 156.945 144.023C157.867 144.023 158.779 143.831 159.68 143.445V144.602C159.221 144.799 158.786 144.94 158.375 145.023C157.969 145.112 157.477 145.156 156.898 145.156ZM156.547 137.367C155.859 137.367 155.31 137.591 154.898 138.039C154.492 138.487 154.253 139.107 154.18 139.898H158.656C158.656 139.081 158.474 138.456 158.109 138.023C157.745 137.586 157.224 137.367 156.547 137.367ZM166.125 137.445H163.945V145H162.648V137.445H161.117V136.859L162.648 136.391V135.914C162.648 133.81 163.568 132.758 165.406 132.758C165.859 132.758 166.391 132.849 167 133.031L166.664 134.07C166.164 133.909 165.737 133.828 165.383 133.828C164.893 133.828 164.531 133.992 164.297 134.32C164.062 134.643 163.945 135.164 163.945 135.883V136.438H166.125V137.445ZM168.984 145H167.688V136.438H168.984V145ZM167.578 134.117C167.578 133.82 167.651 133.604 167.797 133.469C167.943 133.328 168.125 133.258 168.344 133.258C168.552 133.258 168.732 133.328 168.883 133.469C169.034 133.609 169.109 133.826 169.109 134.117C169.109 134.409 169.034 134.628 168.883 134.773C168.732 134.914 168.552 134.984 168.344 134.984C168.125 134.984 167.943 134.914 167.797 134.773C167.651 134.628 167.578 134.409 167.578 134.117ZM177.594 145V139.461C177.594 138.763 177.435 138.242 177.117 137.898C176.799 137.555 176.302 137.383 175.625 137.383C174.729 137.383 174.073 137.625 173.656 138.109C173.24 138.594 173.031 139.393 173.031 140.508V145H171.734V136.438H172.789L173 137.609H173.062C173.328 137.188 173.701 136.862 174.18 136.633C174.659 136.398 175.193 136.281 175.781 136.281C176.812 136.281 177.589 136.531 178.109 137.031C178.63 137.526 178.891 138.32 178.891 139.414V145H177.594ZM185.18 145.156C183.914 145.156 182.914 144.771 182.18 144C181.451 143.229 181.086 142.159 181.086 140.789C181.086 139.409 181.424 138.312 182.102 137.5C182.784 136.688 183.698 136.281 184.844 136.281C185.917 136.281 186.766 136.635 187.391 137.344C188.016 138.047 188.328 138.977 188.328 140.133V140.953H182.43C182.456 141.958 182.708 142.721 183.188 143.242C183.672 143.763 184.352 144.023 185.227 144.023C186.148 144.023 187.06 143.831 187.961 143.445V144.602C187.503 144.799 187.068 144.94 186.656 145.023C186.25 145.112 185.758 145.156 185.18 145.156ZM184.828 137.367C184.141 137.367 183.591 137.591 183.18 138.039C182.773 138.487 182.534 139.107 182.461 139.898H186.938C186.938 139.081 186.755 138.456 186.391 138.023C186.026 137.586 185.505 137.367 184.828 137.367ZM196.07 142.664C196.07 143.461 195.773 144.076 195.18 144.508C194.586 144.94 193.753 145.156 192.68 145.156C191.544 145.156 190.659 144.977 190.023 144.617V143.414C190.435 143.622 190.875 143.786 191.344 143.906C191.818 144.026 192.273 144.086 192.711 144.086C193.388 144.086 193.909 143.979 194.273 143.766C194.638 143.547 194.82 143.216 194.82 142.773C194.82 142.44 194.674 142.156 194.383 141.922C194.096 141.682 193.534 141.401 192.695 141.078C191.898 140.781 191.331 140.523 190.992 140.305C190.659 140.081 190.409 139.828 190.242 139.547C190.081 139.266 190 138.93 190 138.539C190 137.841 190.284 137.292 190.852 136.891C191.419 136.484 192.198 136.281 193.188 136.281C194.109 136.281 195.01 136.469 195.891 136.844L195.43 137.898C194.57 137.544 193.792 137.367 193.094 137.367C192.479 137.367 192.016 137.464 191.703 137.656C191.391 137.849 191.234 138.115 191.234 138.453C191.234 138.682 191.292 138.878 191.406 139.039C191.526 139.201 191.716 139.354 191.977 139.5C192.237 139.646 192.737 139.857 193.477 140.133C194.492 140.503 195.177 140.875 195.531 141.25C195.891 141.625 196.07 142.096 196.07 142.664ZM4.14062 170.086C4.36979 170.086 4.59115 170.07 4.80469 170.039C5.01823 170.003 5.1875 169.966 5.3125 169.93V170.922C5.17188 170.99 4.96354 171.044 4.6875 171.086C4.41667 171.133 4.17188 171.156 3.95312 171.156C2.29688 171.156 1.46875 170.284 1.46875 168.539V163.445H0.242188V162.82L1.46875 162.281L2.01562 160.453H2.76562V162.438H5.25V163.445H2.76562V168.484C2.76562 169 2.88802 169.396 3.13281 169.672C3.3776 169.948 3.71354 170.086 4.14062 170.086ZM12.8906 171V165.461C12.8906 164.763 12.7318 164.242 12.4141 163.898C12.0964 163.555 11.599 163.383 10.9219 163.383C10.0208 163.383 9.36198 163.628 8.94531 164.117C8.53385 164.607 8.32812 165.409 8.32812 166.523V171H7.03125V158.844H8.32812V162.523C8.32812 162.966 8.30729 163.333 8.26562 163.625H8.34375C8.59896 163.214 8.96094 162.891 9.42969 162.656C9.90365 162.417 10.4427 162.297 11.0469 162.297C12.0938 162.297 12.8776 162.547 13.3984 163.047C13.9245 163.542 14.1875 164.331 14.1875 165.414V171H12.8906ZM20.4766 171.156C19.2109 171.156 18.2109 170.771 17.4766 170C16.7474 169.229 16.3828 168.159 16.3828 166.789C16.3828 165.409 16.7214 164.312 17.3984 163.5C18.0807 162.688 18.9948 162.281 20.1406 162.281C21.2135 162.281 22.0625 162.635 22.6875 163.344C23.3125 164.047 23.625 164.977 23.625 166.133V166.953H17.7266C17.7526 167.958 18.0052 168.721 18.4844 169.242C18.9688 169.763 19.6484 170.023 20.5234 170.023C21.4453 170.023 22.3568 169.831 23.2578 169.445V170.602C22.7995 170.799 22.3646 170.94 21.9531 171.023C21.5469 171.112 21.0547 171.156 20.4766 171.156ZM20.125 163.367C19.4375 163.367 18.888 163.591 18.4766 164.039C18.0703 164.487 17.8307 165.107 17.7578 165.898H22.2344C22.2344 165.081 22.0521 164.456 21.6875 164.023C21.3229 163.586 20.8021 163.367 20.125 163.367ZM31.2969 171H30V162.438H31.2969V171ZM29.8906 160.117C29.8906 159.82 29.9635 159.604 30.1094 159.469C30.2552 159.328 30.4375 159.258 30.6562 159.258C30.8646 159.258 31.0443 159.328 31.1953 159.469C31.3464 159.609 31.4219 159.826 31.4219 160.117C31.4219 160.409 31.3464 160.628 31.1953 160.773C31.0443 160.914 30.8646 160.984 30.6562 160.984C30.4375 160.984 30.2552 160.914 30.1094 160.773C29.9635 160.628 29.8906 160.409 29.8906 160.117ZM39.9062 171V165.461C39.9062 164.763 39.7474 164.242 39.4297 163.898C39.112 163.555 38.6146 163.383 37.9375 163.383C37.0417 163.383 36.3854 163.625 35.9688 164.109C35.5521 164.594 35.3438 165.393 35.3438 166.508V171H34.0469V162.438H35.1016L35.3125 163.609H35.375C35.6406 163.188 36.013 162.862 36.4922 162.633C36.9714 162.398 37.5052 162.281 38.0938 162.281C39.125 162.281 39.901 162.531 40.4219 163.031C40.9427 163.526 41.2031 164.32 41.2031 165.414V171H39.9062ZM49.7031 169.852H49.6328C49.0339 170.721 48.138 171.156 46.9453 171.156C45.8255 171.156 44.9531 170.773 44.3281 170.008C43.7083 169.242 43.3984 168.154 43.3984 166.742C43.3984 165.331 43.7109 164.234 44.3359 163.453C44.9609 162.672 45.8307 162.281 46.9453 162.281C48.1068 162.281 48.9974 162.703 49.6172 163.547H49.7188L49.6641 162.93L49.6328 162.328V158.844H50.9297V171H49.875L49.7031 169.852ZM47.1094 170.07C47.9948 170.07 48.6354 169.831 49.0312 169.352C49.4323 168.867 49.6328 168.089 49.6328 167.016V166.742C49.6328 165.529 49.4297 164.664 49.0234 164.148C48.6224 163.628 47.9792 163.367 47.0938 163.367C46.3333 163.367 45.75 163.664 45.3438 164.258C44.9427 164.846 44.7422 165.68 44.7422 166.758C44.7422 167.852 44.9427 168.677 45.3438 169.234C45.7448 169.792 46.3333 170.07 47.1094 170.07ZM54.9844 171H53.6875V162.438H54.9844V171ZM53.5781 160.117C53.5781 159.82 53.651 159.604 53.7969 159.469C53.9427 159.328 54.125 159.258 54.3438 159.258C54.5521 159.258 54.7318 159.328 54.8828 159.469C55.0339 159.609 55.1094 159.826 55.1094 160.117C55.1094 160.409 55.0339 160.628 54.8828 160.773C54.7318 160.914 54.5521 160.984 54.3438 160.984C54.125 160.984 53.9427 160.914 53.7969 160.773C53.651 160.628 53.5781 160.409 53.5781 160.117ZM59.6094 171L56.3594 162.438H57.75L59.5938 167.516C60.0104 168.703 60.2552 169.474 60.3281 169.828H60.3906C60.4479 169.552 60.6276 168.982 60.9297 168.117C61.237 167.247 61.9219 165.354 62.9844 162.438H64.375L61.125 171H59.6094ZM67.0469 171H65.75V162.438H67.0469V171ZM65.6406 160.117C65.6406 159.82 65.7135 159.604 65.8594 159.469C66.0052 159.328 66.1875 159.258 66.4062 159.258C66.6146 159.258 66.7943 159.328 66.9453 159.469C67.0964 159.609 67.1719 159.826 67.1719 160.117C67.1719 160.409 67.0964 160.628 66.9453 160.773C66.7943 160.914 66.6146 160.984 66.4062 160.984C66.1875 160.984 66.0052 160.914 65.8594 160.773C65.7135 160.628 65.6406 160.409 65.6406 160.117ZM75.625 169.852H75.5547C74.9557 170.721 74.0599 171.156 72.8672 171.156C71.7474 171.156 70.875 170.773 70.25 170.008C69.6302 169.242 69.3203 168.154 69.3203 166.742C69.3203 165.331 69.6328 164.234 70.2578 163.453C70.8828 162.672 71.7526 162.281 72.8672 162.281C74.0286 162.281 74.9193 162.703 75.5391 163.547H75.6406L75.5859 162.93L75.5547 162.328V158.844H76.8516V171H75.7969L75.625 169.852ZM73.0312 170.07C73.9167 170.07 74.5573 169.831 74.9531 169.352C75.3542 168.867 75.5547 168.089 75.5547 167.016V166.742C75.5547 165.529 75.3516 164.664 74.9453 164.148C74.5443 163.628 73.901 163.367 73.0156 163.367C72.2552 163.367 71.6719 163.664 71.2656 164.258C70.8646 164.846 70.6641 165.68 70.6641 166.758C70.6641 167.852 70.8646 168.677 71.2656 169.234C71.6667 169.792 72.2552 170.07 73.0312 170.07ZM80.8281 162.438V167.992C80.8281 168.69 80.987 169.211 81.3047 169.555C81.6224 169.898 82.1198 170.07 82.7969 170.07C83.6927 170.07 84.3464 169.826 84.7578 169.336C85.1745 168.846 85.3828 168.047 85.3828 166.938V162.438H86.6797V171H85.6094L85.4219 169.852H85.3516C85.0859 170.273 84.7161 170.596 84.2422 170.82C83.7734 171.044 83.237 171.156 82.6328 171.156C81.5911 171.156 80.8099 170.909 80.2891 170.414C79.7734 169.919 79.5156 169.128 79.5156 168.039V162.438H80.8281ZM94.7031 171L94.4453 169.781H94.3828C93.9557 170.318 93.5286 170.682 93.1016 170.875C92.6797 171.062 92.151 171.156 91.5156 171.156C90.6667 171.156 90 170.938 89.5156 170.5C89.0365 170.062 88.7969 169.44 88.7969 168.633C88.7969 166.904 90.1797 165.997 92.9453 165.914L94.3984 165.867V165.336C94.3984 164.664 94.2526 164.169 93.9609 163.852C93.6745 163.529 93.2135 163.367 92.5781 163.367C91.8646 163.367 91.0573 163.586 90.1562 164.023L89.7578 163.031C90.1797 162.802 90.6406 162.622 91.1406 162.492C91.6458 162.362 92.151 162.297 92.6562 162.297C93.6771 162.297 94.4323 162.523 94.9219 162.977C95.4167 163.43 95.6641 164.156 95.6641 165.156V171H94.7031ZM91.7734 170.086C92.5807 170.086 93.2135 169.865 93.6719 169.422C94.1354 168.979 94.3672 168.359 94.3672 167.562V166.789L93.0703 166.844C92.0391 166.88 91.2943 167.042 90.8359 167.328C90.3828 167.609 90.1562 168.049 90.1562 168.648C90.1562 169.117 90.2969 169.474 90.5781 169.719C90.8646 169.964 91.263 170.086 91.7734 170.086ZM99.6406 171H98.3438V158.844H99.6406V171ZM102.203 170.172C102.203 169.823 102.281 169.56 102.438 169.383C102.599 169.201 102.828 169.109 103.125 169.109C103.427 169.109 103.661 169.201 103.828 169.383C104 169.56 104.086 169.823 104.086 170.172C104.086 170.51 104 170.771 103.828 170.953C103.656 171.135 103.422 171.227 103.125 171.227C102.859 171.227 102.638 171.146 102.461 170.984C102.289 170.818 102.203 170.547 102.203 170.172Z" fill="#544837"/>
<path d="M12.4717 93.043C12.4717 94.6829 11.9346 95.9398 10.8604 96.8135C9.78613 97.6872 8.25716 98.124 6.27344 98.124H4.64062V104H2.07324V88.2949H6.5957C8.55794 88.2949 10.026 88.696 11 89.498C11.9811 90.3001 12.4717 91.4818 12.4717 93.043ZM4.64062 95.9648H6.00488C7.32259 95.9648 8.28939 95.7357 8.90527 95.2773C9.52116 94.819 9.8291 94.1029 9.8291 93.1289C9.8291 92.2266 9.55339 91.5534 9.00195 91.1094C8.45052 90.6654 7.59115 90.4434 6.42383 90.4434H4.64062V95.9648ZM21.3662 91.9043C21.8747 91.9043 22.2936 91.9401 22.623 92.0117L22.376 94.3643C22.0179 94.2783 21.6455 94.2354 21.2588 94.2354C20.249 94.2354 19.429 94.5648 18.7988 95.2236C18.1758 95.8825 17.8643 96.7383 17.8643 97.791V104H15.3398V92.1191H17.3164L17.6494 94.2139H17.7783C18.1722 93.5049 18.6842 92.9427 19.3145 92.5273C19.9518 92.112 20.6357 91.9043 21.3662 91.9043ZM30.0244 104.215C28.1768 104.215 26.7301 103.678 25.6846 102.604C24.6462 101.522 24.127 100.036 24.127 98.1455C24.127 96.2048 24.6104 94.6794 25.5771 93.5693C26.5439 92.4593 27.8724 91.9043 29.5625 91.9043C31.1309 91.9043 32.3698 92.3805 33.2793 93.333C34.1888 94.2855 34.6436 95.596 34.6436 97.2646V98.6289H26.7266C26.7624 99.7819 27.0739 100.67 27.6611 101.293C28.2484 101.909 29.0755 102.217 30.1426 102.217C30.8444 102.217 31.4961 102.152 32.0977 102.023C32.7064 101.887 33.3581 101.665 34.0527 101.357V103.409C33.4368 103.703 32.8138 103.91 32.1836 104.032C31.5534 104.154 30.8337 104.215 30.0244 104.215ZM29.5625 93.8164C28.7604 93.8164 28.1159 94.0706 27.6289 94.5791C27.1491 95.0876 26.8626 95.8288 26.7695 96.8027H32.1621C32.1478 95.8216 31.9115 95.0804 31.4531 94.5791C30.9948 94.0706 30.3646 93.8164 29.5625 93.8164ZM43.4736 94.0312H40.5732V104H38.0381V94.0312H36.083V92.8496L38.0381 92.0762V91.3027C38.0381 89.8991 38.3675 88.8607 39.0264 88.1875C39.6852 87.5072 40.6914 87.167 42.0449 87.167C42.9329 87.167 43.8066 87.3138 44.666 87.6074L44 89.5195C43.377 89.319 42.7826 89.2188 42.2168 89.2188C41.6439 89.2188 41.2249 89.3978 40.96 89.7559C40.7021 90.1068 40.5732 90.6367 40.5732 91.3457V92.1191H43.4736V94.0312ZM50.6924 104.215C48.8447 104.215 47.3981 103.678 46.3525 102.604C45.3141 101.522 44.7949 100.036 44.7949 98.1455C44.7949 96.2048 45.2783 94.6794 46.2451 93.5693C47.2119 92.4593 48.5404 91.9043 50.2305 91.9043C51.7988 91.9043 53.0378 92.3805 53.9473 93.333C54.8568 94.2855 55.3115 95.596 55.3115 97.2646V98.6289H47.3945C47.4303 99.7819 47.7419 100.67 48.3291 101.293C48.9163 101.909 49.7435 102.217 50.8105 102.217C51.5124 102.217 52.1641 102.152 52.7656 102.023C53.3743 101.887 54.026 101.665 54.7207 101.357V103.409C54.1048 103.703 53.4818 103.91 52.8516 104.032C52.2214 104.154 51.5016 104.215 50.6924 104.215ZM50.2305 93.8164C49.4284 93.8164 48.7839 94.0706 48.2969 94.5791C47.8171 95.0876 47.5306 95.8288 47.4375 96.8027H52.8301C52.8158 95.8216 52.5794 95.0804 52.1211 94.5791C51.6628 94.0706 51.0326 93.8164 50.2305 93.8164ZM64.2061 91.9043C64.7145 91.9043 65.1335 91.9401 65.4629 92.0117L65.2158 94.3643C64.8577 94.2783 64.4854 94.2354 64.0986 94.2354C63.0889 94.2354 62.2689 94.5648 61.6387 95.2236C61.0156 95.8825 60.7041 96.7383 60.7041 97.791V104H58.1797V92.1191H60.1562L60.4893 94.2139H60.6182C61.012 93.5049 61.5241 92.9427 62.1543 92.5273C62.7917 92.112 63.4756 91.9043 64.2061 91.9043ZM72.8643 104.215C71.0166 104.215 69.57 103.678 68.5244 102.604C67.486 101.522 66.9668 100.036 66.9668 98.1455C66.9668 96.2048 67.4502 94.6794 68.417 93.5693C69.3838 92.4593 70.7122 91.9043 72.4023 91.9043C73.9707 91.9043 75.2096 92.3805 76.1191 93.333C77.0286 94.2855 77.4834 95.596 77.4834 97.2646V98.6289H69.5664C69.6022 99.7819 69.9137 100.67 70.501 101.293C71.0882 101.909 71.9154 102.217 72.9824 102.217C73.6842 102.217 74.3359 102.152 74.9375 102.023C75.5462 101.887 76.1979 101.665 76.8926 101.357V103.409C76.2767 103.703 75.6536 103.91 75.0234 104.032C74.3932 104.154 73.6735 104.215 72.8643 104.215ZM72.4023 93.8164C71.6003 93.8164 70.9557 94.0706 70.4688 94.5791C69.9889 95.0876 69.7025 95.8288 69.6094 96.8027H75.002C74.9876 95.8216 74.7513 95.0804 74.293 94.5791C73.8346 94.0706 73.2044 93.8164 72.4023 93.8164ZM90.8037 104H88.2686V96.6953C88.2686 95.7786 88.0824 95.0947 87.71 94.6436C87.3447 94.1924 86.7611 93.9668 85.959 93.9668C84.8919 93.9668 84.1113 94.2819 83.6172 94.9121C83.123 95.5423 82.876 96.5986 82.876 98.0811V104H80.3516V92.1191H82.3281L82.6826 93.6768H82.8115C83.1696 93.111 83.6781 92.6742 84.3369 92.3662C84.9958 92.0583 85.7262 91.9043 86.5283 91.9043C89.3786 91.9043 90.8037 93.3545 90.8037 96.2549V104ZM99.1074 104.215C97.3099 104.215 95.9421 103.692 95.0039 102.646C94.0729 101.594 93.6074 100.086 93.6074 98.124C93.6074 96.126 94.0944 94.5898 95.0684 93.5156C96.0495 92.4414 97.4639 91.9043 99.3115 91.9043C100.565 91.9043 101.693 92.137 102.695 92.6025L101.933 94.6328C100.866 94.2174 99.9847 94.0098 99.29 94.0098C97.2347 94.0098 96.207 95.374 96.207 98.1025C96.207 99.4346 96.4613 100.437 96.9697 101.11C97.4854 101.776 98.2373 102.109 99.2256 102.109C100.35 102.109 101.413 101.83 102.416 101.271V103.474C101.965 103.739 101.481 103.928 100.966 104.043C100.457 104.158 99.8379 104.215 99.1074 104.215ZM110.397 104.215C108.55 104.215 107.103 103.678 106.058 102.604C105.019 101.522 104.5 100.036 104.5 98.1455C104.5 96.2048 104.983 94.6794 105.95 93.5693C106.917 92.4593 108.245 91.9043 109.936 91.9043C111.504 91.9043 112.743 92.3805 113.652 93.333C114.562 94.2855 115.017 95.596 115.017 97.2646V98.6289H107.1C107.135 99.7819 107.447 100.67 108.034 101.293C108.621 101.909 109.449 102.217 110.516 102.217C111.217 102.217 111.869 102.152 112.471 102.023C113.079 101.887 113.731 101.665 114.426 101.357V103.409C113.81 103.703 113.187 103.91 112.557 104.032C111.926 104.154 111.207 104.215 110.397 104.215ZM109.936 93.8164C109.133 93.8164 108.489 94.0706 108.002 94.5791C107.522 95.0876 107.236 95.8288 107.143 96.8027H112.535C112.521 95.8216 112.285 95.0804 111.826 94.5791C111.368 94.0706 110.738 93.8164 109.936 93.8164ZM128.025 102.174C128.641 102.174 129.257 102.077 129.873 101.884V103.785C129.594 103.907 129.232 104.007 128.788 104.086C128.351 104.172 127.896 104.215 127.424 104.215C125.032 104.215 123.836 102.954 123.836 100.434V94.0312H122.214V92.9141L123.954 91.9902L124.813 89.4766H126.371V92.1191H129.755V94.0312H126.371V100.391C126.371 100.999 126.521 101.451 126.822 101.744C127.13 102.031 127.531 102.174 128.025 102.174ZM137.446 104.215C135.599 104.215 134.152 103.678 133.106 102.604C132.068 101.522 131.549 100.036 131.549 98.1455C131.549 96.2048 132.032 94.6794 132.999 93.5693C133.966 92.4593 135.294 91.9043 136.984 91.9043C138.553 91.9043 139.792 92.3805 140.701 93.333C141.611 94.2855 142.065 95.596 142.065 97.2646V98.6289H134.148C134.184 99.7819 134.496 100.67 135.083 101.293C135.67 101.909 136.497 102.217 137.564 102.217C138.266 102.217 138.918 102.152 139.52 102.023C140.128 101.887 140.78 101.665 141.475 101.357V103.409C140.859 103.703 140.236 103.91 139.605 104.032C138.975 104.154 138.256 104.215 137.446 104.215ZM136.984 93.8164C136.182 93.8164 135.538 94.0706 135.051 94.5791C134.571 95.0876 134.285 95.8288 134.191 96.8027H139.584C139.57 95.8216 139.333 95.0804 138.875 94.5791C138.417 94.0706 137.786 93.8164 136.984 93.8164ZM152.915 100.616C152.915 101.776 152.493 102.668 151.647 103.291C150.802 103.907 149.592 104.215 148.017 104.215C146.434 104.215 145.163 103.975 144.203 103.495V101.314C145.6 101.959 146.899 102.281 148.103 102.281C149.657 102.281 150.434 101.812 150.434 100.874C150.434 100.573 150.348 100.323 150.176 100.122C150.004 99.9215 149.721 99.7139 149.327 99.499C148.933 99.2842 148.385 99.0407 147.684 98.7686C146.316 98.2386 145.388 97.7087 144.901 97.1787C144.422 96.6488 144.182 95.9613 144.182 95.1162C144.182 94.0993 144.59 93.3115 145.406 92.7529C146.23 92.1872 147.347 91.9043 148.758 91.9043C150.154 91.9043 151.476 92.1872 152.722 92.7529L151.905 94.6543C150.623 94.1243 149.546 93.8594 148.672 93.8594C147.34 93.8594 146.674 94.2389 146.674 94.998C146.674 95.3704 146.846 95.6855 147.189 95.9434C147.54 96.2012 148.299 96.5557 149.467 97.0068C150.448 97.3864 151.16 97.7337 151.604 98.0488C152.049 98.3639 152.378 98.7292 152.593 99.1445C152.808 99.5527 152.915 100.043 152.915 100.616ZM160.08 102.174C160.696 102.174 161.312 102.077 161.928 101.884V103.785C161.648 103.907 161.287 104.007 160.843 104.086C160.406 104.172 159.951 104.215 159.479 104.215C157.087 104.215 155.891 102.954 155.891 100.434V94.0312H154.269V92.9141L156.009 91.9902L156.868 89.4766H158.426V92.1191H161.81V94.0312H158.426V100.391C158.426 100.999 158.576 101.451 158.877 101.744C159.185 102.031 159.586 102.174 160.08 102.174ZM172.294 100.616C172.294 101.776 171.871 102.668 171.026 103.291C170.181 103.907 168.971 104.215 167.396 104.215C165.813 104.215 164.542 103.975 163.582 103.495V101.314C164.979 101.959 166.278 102.281 167.481 102.281C169.035 102.281 169.812 101.812 169.812 100.874C169.812 100.573 169.727 100.323 169.555 100.122C169.383 99.9215 169.1 99.7139 168.706 99.499C168.312 99.2842 167.764 99.0407 167.062 98.7686C165.695 98.2386 164.767 97.7087 164.28 97.1787C163.8 96.6488 163.561 95.9613 163.561 95.1162C163.561 94.0993 163.969 93.3115 164.785 92.7529C165.609 92.1872 166.726 91.9043 168.137 91.9043C169.533 91.9043 170.854 92.1872 172.101 92.7529L171.284 94.6543C170.002 94.1243 168.924 93.8594 168.051 93.8594C166.719 93.8594 166.053 94.2389 166.053 94.998C166.053 95.3704 166.225 95.6855 166.568 95.9434C166.919 96.2012 167.678 96.5557 168.846 97.0068C169.827 97.3864 170.539 97.7337 170.983 98.0488C171.427 98.3639 171.757 98.7292 171.972 99.1445C172.187 99.5527 172.294 100.043 172.294 100.616Z" fill="#2F281E"/>
</g>
<defs>
<clipPath id="clip0_2_742">
<rect width="262.356" height="98" fill="white" transform="translate(0 80)"/>
</clipPath>
</defs>
</svg>
