<svg width="263" height="204" viewBox="0 0 263 204" fill="none" xmlns="http://www.w3.org/2000/svg">
<rect width="50" height="50" rx="19" fill="#4DADF7"/>
<path d="M30.2481 19.4286H31.1053C31.266 19.4286 31.391 19.3036 31.391 19.1429V18.5714C31.391 18.4107 31.266 18.2857 31.1053 18.2857H17.9624C17.8017 18.2857 17.6767 18.4107 17.6767 18.5714V19.1429C17.6767 19.3036 17.8017 19.4286 17.9624 19.4286H18.8196C18.8196 22.7321 20.3999 25.125 22.1499 26.2857C20.3999 27.4464 18.8196 29.8393 18.8196 33.1429H17.9624C17.8017 33.1429 17.6767 33.2679 17.6767 33.4286V34C17.6767 34.1607 17.8017 34.2857 17.9624 34.2857H31.1053C31.266 34.2857 31.391 34.1607 31.391 34V33.4286C31.391 33.2679 31.266 33.1429 31.1053 33.1429H30.2481C30.2481 29.8393 28.6678 27.4464 26.9178 26.2857C28.6678 25.125 30.2481 22.7321 30.2481 19.4286ZM29.1053 19.4286C29.1053 20.7321 28.8106 21.8839 28.3464 22.8571H20.7214C20.2571 21.8839 19.9624 20.7321 19.9624 19.4286H29.1053ZM28.5964 30.2857H20.4714C21.1321 28.5625 22.3196 27.3393 23.5071 26.8571H25.5606C26.7481 27.3393 27.9356 28.5625 28.5964 30.2857Z" fill="white"/>
<path d="M8.8125 136.906C8.8125 138.062 8.41667 138.953 7.625 139.578C6.83854 140.198 5.71094 140.508 4.24219 140.508H2.89844V145H1.57031V133.578H4.53125C7.38542 133.578 8.8125 134.688 8.8125 136.906ZM2.89844 139.367H4.09375C5.27083 139.367 6.1224 139.177 6.64844 138.797C7.17448 138.417 7.4375 137.807 7.4375 136.969C7.4375 136.214 7.1901 135.651 6.69531 135.281C6.20052 134.911 5.42969 134.727 4.38281 134.727H2.89844V139.367ZM14.6328 145.156C13.3672 145.156 12.3672 144.771 11.6328 144C10.9036 143.229 10.5391 142.159 10.5391 140.789C10.5391 139.409 10.8776 138.312 11.5547 137.5C12.237 136.688 13.151 136.281 14.2969 136.281C15.3698 136.281 16.2188 136.635 16.8438 137.344C17.4688 138.047 17.7812 138.977 17.7812 140.133V140.953H11.8828C11.9089 141.958 12.1615 142.721 12.6406 143.242C13.125 143.763 13.8047 144.023 14.6797 144.023C15.6016 144.023 16.513 143.831 17.4141 143.445V144.602C16.9557 144.799 16.5208 144.94 16.1094 145.023C15.7031 145.112 15.2109 145.156 14.6328 145.156ZM14.2812 137.367C13.5938 137.367 13.0443 137.591 12.6328 138.039C12.2266 138.487 11.987 139.107 11.9141 139.898H16.3906C16.3906 139.081 16.2083 138.456 15.8438 138.023C15.4792 137.586 14.9583 137.367 14.2812 137.367ZM23.9062 136.281C24.2865 136.281 24.6276 136.312 24.9297 136.375L24.75 137.578C24.3958 137.5 24.0833 137.461 23.8125 137.461C23.1198 137.461 22.526 137.742 22.0312 138.305C21.5417 138.867 21.2969 139.568 21.2969 140.406V145H20V136.438H21.0703L21.2188 138.023H21.2812C21.599 137.466 21.9818 137.036 22.4297 136.734C22.8776 136.432 23.3698 136.281 23.9062 136.281ZM32.0547 142.664C32.0547 143.461 31.7578 144.076 31.1641 144.508C30.5703 144.94 29.737 145.156 28.6641 145.156C27.5286 145.156 26.6432 144.977 26.0078 144.617V143.414C26.4193 143.622 26.8594 143.786 27.3281 143.906C27.8021 144.026 28.2578 144.086 28.6953 144.086C29.3724 144.086 29.8932 143.979 30.2578 143.766C30.6224 143.547 30.8047 143.216 30.8047 142.773C30.8047 142.44 30.6589 142.156 30.3672 141.922C30.0807 141.682 29.5182 141.401 28.6797 141.078C27.8828 140.781 27.3151 140.523 26.9766 140.305C26.6432 140.081 26.3932 139.828 26.2266 139.547C26.0651 139.266 25.9844 138.93 25.9844 138.539C25.9844 137.841 26.2682 137.292 26.8359 136.891C27.4036 136.484 28.1823 136.281 29.1719 136.281C30.0938 136.281 30.9948 136.469 31.875 136.844L31.4141 137.898C30.5547 137.544 29.776 137.367 29.0781 137.367C28.4635 137.367 28 137.464 27.6875 137.656C27.375 137.849 27.2188 138.115 27.2188 138.453C27.2188 138.682 27.276 138.878 27.3906 139.039C27.5104 139.201 27.7005 139.354 27.9609 139.5C28.2214 139.646 28.7214 139.857 29.4609 140.133C30.4766 140.503 31.1615 140.875 31.5156 141.25C31.875 141.625 32.0547 142.096 32.0547 142.664ZM41.5625 140.711C41.5625 142.107 41.2109 143.198 40.5078 143.984C39.8047 144.766 38.8333 145.156 37.5938 145.156C36.8281 145.156 36.1484 144.977 35.5547 144.617C34.9609 144.258 34.5026 143.742 34.1797 143.07C33.8568 142.398 33.6953 141.612 33.6953 140.711C33.6953 139.315 34.0443 138.229 34.7422 137.453C35.4401 136.672 36.4089 136.281 37.6484 136.281C38.8464 136.281 39.7969 136.68 40.5 137.477C41.2083 138.273 41.5625 139.352 41.5625 140.711ZM35.0391 140.711C35.0391 141.805 35.2578 142.638 35.6953 143.211C36.1328 143.784 36.776 144.07 37.625 144.07C38.474 144.07 39.1172 143.786 39.5547 143.219C39.9974 142.646 40.2188 141.81 40.2188 140.711C40.2188 139.622 39.9974 138.797 39.5547 138.234C39.1172 137.667 38.4688 137.383 37.6094 137.383C36.7604 137.383 36.1198 137.661 35.6875 138.219C35.2552 138.776 35.0391 139.607 35.0391 140.711ZM49.7031 145V139.461C49.7031 138.763 49.5443 138.242 49.2266 137.898C48.9089 137.555 48.4115 137.383 47.7344 137.383C46.8385 137.383 46.1823 137.625 45.7656 138.109C45.349 138.594 45.1406 139.393 45.1406 140.508V145H43.8438V136.438H44.8984L45.1094 137.609H45.1719C45.4375 137.188 45.8099 136.862 46.2891 136.633C46.7682 136.398 47.3021 136.281 47.8906 136.281C48.9219 136.281 49.6979 136.531 50.2188 137.031C50.7396 137.526 51 138.32 51 139.414V145H49.7031ZM58.9375 145L58.6797 143.781H58.6172C58.1901 144.318 57.763 144.682 57.3359 144.875C56.9141 145.062 56.3854 145.156 55.75 145.156C54.901 145.156 54.2344 144.938 53.75 144.5C53.2708 144.062 53.0312 143.44 53.0312 142.633C53.0312 140.904 54.4141 139.997 57.1797 139.914L58.6328 139.867V139.336C58.6328 138.664 58.487 138.169 58.1953 137.852C57.9089 137.529 57.4479 137.367 56.8125 137.367C56.099 137.367 55.2917 137.586 54.3906 138.023L53.9922 137.031C54.4141 136.802 54.875 136.622 55.375 136.492C55.8802 136.362 56.3854 136.297 56.8906 136.297C57.9115 136.297 58.6667 136.523 59.1562 136.977C59.651 137.43 59.8984 138.156 59.8984 139.156V145H58.9375ZM56.0078 144.086C56.8151 144.086 57.4479 143.865 57.9062 143.422C58.3698 142.979 58.6016 142.359 58.6016 141.562V140.789L57.3047 140.844C56.2734 140.88 55.5286 141.042 55.0703 141.328C54.6172 141.609 54.3906 142.049 54.3906 142.648C54.3906 143.117 54.5312 143.474 54.8125 143.719C55.099 143.964 55.4974 144.086 56.0078 144.086ZM63.875 145H62.5781V132.844H63.875V145ZM74.2031 145.156C72.9635 145.156 72.0026 144.776 71.3203 144.016C70.6432 143.25 70.3047 142.169 70.3047 140.773C70.3047 139.341 70.6484 138.234 71.3359 137.453C72.0286 136.672 73.013 136.281 74.2891 136.281C74.7005 136.281 75.112 136.326 75.5234 136.414C75.9349 136.503 76.2578 136.607 76.4922 136.727L76.0938 137.828C75.8073 137.714 75.4948 137.62 75.1562 137.547C74.8177 137.469 74.5182 137.43 74.2578 137.43C72.5182 137.43 71.6484 138.539 71.6484 140.758C71.6484 141.81 71.8594 142.617 72.2812 143.18C72.7083 143.742 73.3385 144.023 74.1719 144.023C74.8854 144.023 75.6172 143.87 76.3672 143.562V144.711C75.7943 145.008 75.0729 145.156 74.2031 145.156ZM84.2656 145V139.461C84.2656 138.763 84.1068 138.242 83.7891 137.898C83.4714 137.555 82.974 137.383 82.2969 137.383C81.3958 137.383 80.737 137.628 80.3203 138.117C79.9089 138.607 79.7031 139.409 79.7031 140.523V145H78.4062V132.844H79.7031V136.523C79.7031 136.966 79.6823 137.333 79.6406 137.625H79.7188C79.974 137.214 80.3359 136.891 80.8047 136.656C81.2786 136.417 81.8177 136.297 82.4219 136.297C83.4688 136.297 84.2526 136.547 84.7734 137.047C85.2995 137.542 85.5625 138.331 85.5625 139.414V145H84.2656ZM95.625 140.711C95.625 142.107 95.2734 143.198 94.5703 143.984C93.8672 144.766 92.8958 145.156 91.6562 145.156C90.8906 145.156 90.2109 144.977 89.6172 144.617C89.0234 144.258 88.5651 143.742 88.2422 143.07C87.9193 142.398 87.7578 141.612 87.7578 140.711C87.7578 139.315 88.1068 138.229 88.8047 137.453C89.5026 136.672 90.4714 136.281 91.7109 136.281C92.9089 136.281 93.8594 136.68 94.5625 137.477C95.2708 138.273 95.625 139.352 95.625 140.711ZM89.1016 140.711C89.1016 141.805 89.3203 142.638 89.7578 143.211C90.1953 143.784 90.8385 144.07 91.6875 144.07C92.5365 144.07 93.1797 143.786 93.6172 143.219C94.0599 142.646 94.2812 141.81 94.2812 140.711C94.2812 139.622 94.0599 138.797 93.6172 138.234C93.1797 137.667 92.5312 137.383 91.6719 137.383C90.8229 137.383 90.1823 137.661 89.75 138.219C89.3177 138.776 89.1016 139.607 89.1016 140.711ZM99.2031 145H97.9062V136.438H99.2031V145ZM97.7969 134.117C97.7969 133.82 97.8698 133.604 98.0156 133.469C98.1615 133.328 98.3438 133.258 98.5625 133.258C98.7708 133.258 98.9505 133.328 99.1016 133.469C99.2526 133.609 99.3281 133.826 99.3281 134.117C99.3281 134.409 99.2526 134.628 99.1016 134.773C98.9505 134.914 98.7708 134.984 98.5625 134.984C98.3438 134.984 98.1615 134.914 98.0156 134.773C97.8698 134.628 97.7969 134.409 97.7969 134.117ZM105.375 145.156C104.135 145.156 103.174 144.776 102.492 144.016C101.815 143.25 101.477 142.169 101.477 140.773C101.477 139.341 101.82 138.234 102.508 137.453C103.201 136.672 104.185 136.281 105.461 136.281C105.872 136.281 106.284 136.326 106.695 136.414C107.107 136.503 107.43 136.607 107.664 136.727L107.266 137.828C106.979 137.714 106.667 137.62 106.328 137.547C105.99 137.469 105.69 137.43 105.43 137.43C103.69 137.43 102.82 138.539 102.82 140.758C102.82 141.81 103.031 142.617 103.453 143.18C103.88 143.742 104.51 144.023 105.344 144.023C106.057 144.023 106.789 143.87 107.539 143.562V144.711C106.966 145.008 106.245 145.156 105.375 145.156ZM113.195 145.156C111.93 145.156 110.93 144.771 110.195 144C109.466 143.229 109.102 142.159 109.102 140.789C109.102 139.409 109.44 138.312 110.117 137.5C110.799 136.688 111.714 136.281 112.859 136.281C113.932 136.281 114.781 136.635 115.406 137.344C116.031 138.047 116.344 138.977 116.344 140.133V140.953H110.445C110.471 141.958 110.724 142.721 111.203 143.242C111.688 143.763 112.367 144.023 113.242 144.023C114.164 144.023 115.076 143.831 115.977 143.445V144.602C115.518 144.799 115.083 144.94 114.672 145.023C114.266 145.112 113.773 145.156 113.195 145.156ZM112.844 137.367C112.156 137.367 111.607 137.591 111.195 138.039C110.789 138.487 110.549 139.107 110.477 139.898H114.953C114.953 139.081 114.771 138.456 114.406 138.023C114.042 137.586 113.521 137.367 112.844 137.367ZM124.086 142.664C124.086 143.461 123.789 144.076 123.195 144.508C122.602 144.94 121.768 145.156 120.695 145.156C119.56 145.156 118.674 144.977 118.039 144.617V143.414C118.451 143.622 118.891 143.786 119.359 143.906C119.833 144.026 120.289 144.086 120.727 144.086C121.404 144.086 121.924 143.979 122.289 143.766C122.654 143.547 122.836 143.216 122.836 142.773C122.836 142.44 122.69 142.156 122.398 141.922C122.112 141.682 121.549 141.401 120.711 141.078C119.914 140.781 119.346 140.523 119.008 140.305C118.674 140.081 118.424 139.828 118.258 139.547C118.096 139.266 118.016 138.93 118.016 138.539C118.016 137.841 118.299 137.292 118.867 136.891C119.435 136.484 120.214 136.281 121.203 136.281C122.125 136.281 123.026 136.469 123.906 136.844L123.445 137.898C122.586 137.544 121.807 137.367 121.109 137.367C120.495 137.367 120.031 137.464 119.719 137.656C119.406 137.849 119.25 138.115 119.25 138.453C119.25 138.682 119.307 138.878 119.422 139.039C119.542 139.201 119.732 139.354 119.992 139.5C120.253 139.646 120.753 139.857 121.492 140.133C122.508 140.503 123.193 140.875 123.547 141.25C123.906 141.625 124.086 142.096 124.086 142.664ZM135.625 145L135.367 143.781H135.305C134.878 144.318 134.451 144.682 134.023 144.875C133.602 145.062 133.073 145.156 132.438 145.156C131.589 145.156 130.922 144.938 130.438 144.5C129.958 144.062 129.719 143.44 129.719 142.633C129.719 140.904 131.102 139.997 133.867 139.914L135.32 139.867V139.336C135.32 138.664 135.174 138.169 134.883 137.852C134.596 137.529 134.135 137.367 133.5 137.367C132.786 137.367 131.979 137.586 131.078 138.023L130.68 137.031C131.102 136.802 131.562 136.622 132.062 136.492C132.568 136.362 133.073 136.297 133.578 136.297C134.599 136.297 135.354 136.523 135.844 136.977C136.339 137.43 136.586 138.156 136.586 139.156V145H135.625ZM132.695 144.086C133.503 144.086 134.135 143.865 134.594 143.422C135.057 142.979 135.289 142.359 135.289 141.562V140.789L133.992 140.844C132.961 140.88 132.216 141.042 131.758 141.328C131.305 141.609 131.078 142.049 131.078 142.648C131.078 143.117 131.219 143.474 131.5 143.719C131.786 143.964 132.185 144.086 132.695 144.086ZM145.125 145V139.461C145.125 138.763 144.966 138.242 144.648 137.898C144.331 137.555 143.833 137.383 143.156 137.383C142.26 137.383 141.604 137.625 141.188 138.109C140.771 138.594 140.562 139.393 140.562 140.508V145H139.266V136.438H140.32L140.531 137.609H140.594C140.859 137.188 141.232 136.862 141.711 136.633C142.19 136.398 142.724 136.281 143.312 136.281C144.344 136.281 145.12 136.531 145.641 137.031C146.161 137.526 146.422 138.32 146.422 139.414V145H145.125ZM154.922 143.852H154.852C154.253 144.721 153.357 145.156 152.164 145.156C151.044 145.156 150.172 144.773 149.547 144.008C148.927 143.242 148.617 142.154 148.617 140.742C148.617 139.331 148.93 138.234 149.555 137.453C150.18 136.672 151.049 136.281 152.164 136.281C153.326 136.281 154.216 136.703 154.836 137.547H154.938L154.883 136.93L154.852 136.328V132.844H156.148V145H155.094L154.922 143.852ZM152.328 144.07C153.214 144.07 153.854 143.831 154.25 143.352C154.651 142.867 154.852 142.089 154.852 141.016V140.742C154.852 139.529 154.648 138.664 154.242 138.148C153.841 137.628 153.198 137.367 152.312 137.367C151.552 137.367 150.969 137.664 150.562 138.258C150.161 138.846 149.961 139.68 149.961 140.758C149.961 141.852 150.161 142.677 150.562 143.234C150.964 143.792 151.552 144.07 152.328 144.07ZM165.828 144.086C166.057 144.086 166.279 144.07 166.492 144.039C166.706 144.003 166.875 143.966 167 143.93V144.922C166.859 144.99 166.651 145.044 166.375 145.086C166.104 145.133 165.859 145.156 165.641 145.156C163.984 145.156 163.156 144.284 163.156 142.539V137.445H161.93V136.82L163.156 136.281L163.703 134.453H164.453V136.438H166.938V137.445H164.453V142.484C164.453 143 164.576 143.396 164.82 143.672C165.065 143.948 165.401 144.086 165.828 144.086ZM174.578 145V139.461C174.578 138.763 174.419 138.242 174.102 137.898C173.784 137.555 173.286 137.383 172.609 137.383C171.708 137.383 171.049 137.628 170.633 138.117C170.221 138.607 170.016 139.409 170.016 140.523V145H168.719V132.844H170.016V136.523C170.016 136.966 169.995 137.333 169.953 137.625H170.031C170.286 137.214 170.648 136.891 171.117 136.656C171.591 136.417 172.13 136.297 172.734 136.297C173.781 136.297 174.565 136.547 175.086 137.047C175.612 137.542 175.875 138.331 175.875 139.414V145H174.578ZM182.164 145.156C180.898 145.156 179.898 144.771 179.164 144C178.435 143.229 178.07 142.159 178.07 140.789C178.07 139.409 178.409 138.312 179.086 137.5C179.768 136.688 180.682 136.281 181.828 136.281C182.901 136.281 183.75 136.635 184.375 137.344C185 138.047 185.312 138.977 185.312 140.133V140.953H179.414C179.44 141.958 179.693 142.721 180.172 143.242C180.656 143.763 181.336 144.023 182.211 144.023C183.133 144.023 184.044 143.831 184.945 143.445V144.602C184.487 144.799 184.052 144.94 183.641 145.023C183.234 145.112 182.742 145.156 182.164 145.156ZM181.812 137.367C181.125 137.367 180.576 137.591 180.164 138.039C179.758 138.487 179.518 139.107 179.445 139.898H183.922C183.922 139.081 183.74 138.456 183.375 138.023C183.01 137.586 182.49 137.367 181.812 137.367ZM199.078 140.711C199.078 142.107 198.727 143.198 198.023 143.984C197.32 144.766 196.349 145.156 195.109 145.156C194.344 145.156 193.664 144.977 193.07 144.617C192.477 144.258 192.018 143.742 191.695 143.07C191.372 142.398 191.211 141.612 191.211 140.711C191.211 139.315 191.56 138.229 192.258 137.453C192.956 136.672 193.924 136.281 195.164 136.281C196.362 136.281 197.312 136.68 198.016 137.477C198.724 138.273 199.078 139.352 199.078 140.711ZM192.555 140.711C192.555 141.805 192.773 142.638 193.211 143.211C193.648 143.784 194.292 144.07 195.141 144.07C195.99 144.07 196.633 143.786 197.07 143.219C197.513 142.646 197.734 141.81 197.734 140.711C197.734 139.622 197.513 138.797 197.07 138.234C196.633 137.667 195.984 137.383 195.125 137.383C194.276 137.383 193.635 137.661 193.203 138.219C192.771 138.776 192.555 139.607 192.555 140.711ZM203.234 145L199.984 136.438H201.375L203.219 141.516C203.635 142.703 203.88 143.474 203.953 143.828H204.016C204.073 143.552 204.253 142.982 204.555 142.117C204.862 141.247 205.547 139.354 206.609 136.438H208L204.75 145H203.234ZM212.992 145.156C211.727 145.156 210.727 144.771 209.992 144C209.263 143.229 208.898 142.159 208.898 140.789C208.898 139.409 209.237 138.312 209.914 137.5C210.596 136.688 211.51 136.281 212.656 136.281C213.729 136.281 214.578 136.635 215.203 137.344C215.828 138.047 216.141 138.977 216.141 140.133V140.953H210.242C210.268 141.958 210.521 142.721 211 143.242C211.484 143.763 212.164 144.023 213.039 144.023C213.961 144.023 214.872 143.831 215.773 143.445V144.602C215.315 144.799 214.88 144.94 214.469 145.023C214.062 145.112 213.57 145.156 212.992 145.156ZM212.641 137.367C211.953 137.367 211.404 137.591 210.992 138.039C210.586 138.487 210.346 139.107 210.273 139.898H214.75C214.75 139.081 214.568 138.456 214.203 138.023C213.839 137.586 213.318 137.367 212.641 137.367ZM222.266 136.281C222.646 136.281 222.987 136.312 223.289 136.375L223.109 137.578C222.755 137.5 222.443 137.461 222.172 137.461C221.479 137.461 220.885 137.742 220.391 138.305C219.901 138.867 219.656 139.568 219.656 140.406V145H218.359V136.438H219.43L219.578 138.023H219.641C219.958 137.466 220.341 137.036 220.789 136.734C221.237 136.432 221.729 136.281 222.266 136.281ZM230.156 145L229.898 143.781H229.836C229.409 144.318 228.982 144.682 228.555 144.875C228.133 145.062 227.604 145.156 226.969 145.156C226.12 145.156 225.453 144.938 224.969 144.5C224.49 144.062 224.25 143.44 224.25 142.633C224.25 140.904 225.633 139.997 228.398 139.914L229.852 139.867V139.336C229.852 138.664 229.706 138.169 229.414 137.852C229.128 137.529 228.667 137.367 228.031 137.367C227.318 137.367 226.51 137.586 225.609 138.023L225.211 137.031C225.633 136.802 226.094 136.622 226.594 136.492C227.099 136.362 227.604 136.297 228.109 136.297C229.13 136.297 229.885 136.523 230.375 136.977C230.87 137.43 231.117 138.156 231.117 139.156V145H230.156ZM227.227 144.086C228.034 144.086 228.667 143.865 229.125 143.422C229.589 142.979 229.82 142.359 229.82 141.562V140.789L228.523 140.844C227.492 140.88 226.747 141.042 226.289 141.328C225.836 141.609 225.609 142.049 225.609 142.648C225.609 143.117 225.75 143.474 226.031 143.719C226.318 143.964 226.716 144.086 227.227 144.086ZM235.094 145H233.797V132.844H235.094V145ZM239.141 145H237.844V132.844H239.141V145ZM5.35938 171.156C4.80208 171.156 4.29167 171.055 3.82812 170.852C3.36979 170.643 2.98438 170.326 2.67188 169.898H2.57812C2.64062 170.398 2.67188 170.872 2.67188 171.32V174.844H1.375V162.438H2.42969L2.60938 163.609H2.67188C3.00521 163.141 3.39323 162.802 3.83594 162.594C4.27865 162.385 4.78646 162.281 5.35938 162.281C6.49479 162.281 7.36979 162.669 7.98438 163.445C8.60417 164.221 8.91406 165.31 8.91406 166.711C8.91406 168.117 8.59896 169.211 7.96875 169.992C7.34375 170.768 6.47396 171.156 5.35938 171.156ZM5.17188 163.383C4.29688 163.383 3.66406 163.625 3.27344 164.109C2.88281 164.594 2.68229 165.365 2.67188 166.422V166.711C2.67188 167.914 2.8724 168.776 3.27344 169.297C3.67448 169.812 4.31771 170.07 5.20312 170.07C5.94271 170.07 6.52083 169.771 6.9375 169.172C7.35938 168.573 7.57031 167.747 7.57031 166.695C7.57031 165.628 7.35938 164.81 6.9375 164.242C6.52083 163.669 5.93229 163.383 5.17188 163.383ZM14.8047 171.156C13.5391 171.156 12.5391 170.771 11.8047 170C11.0755 169.229 10.7109 168.159 10.7109 166.789C10.7109 165.409 11.0495 164.312 11.7266 163.5C12.4089 162.688 13.3229 162.281 14.4688 162.281C15.5417 162.281 16.3906 162.635 17.0156 163.344C17.6406 164.047 17.9531 164.977 17.9531 166.133V166.953H12.0547C12.0807 167.958 12.3333 168.721 12.8125 169.242C13.2969 169.763 13.9766 170.023 14.8516 170.023C15.7734 170.023 16.6849 169.831 17.5859 169.445V170.602C17.1276 170.799 16.6927 170.94 16.2812 171.023C15.875 171.112 15.3828 171.156 14.8047 171.156ZM14.4531 163.367C13.7656 163.367 13.2161 163.591 12.8047 164.039C12.3984 164.487 12.1589 165.107 12.0859 165.898H16.5625C16.5625 165.081 16.3802 164.456 16.0156 164.023C15.651 163.586 15.1302 163.367 14.4531 163.367ZM24.0781 162.281C24.4583 162.281 24.7995 162.312 25.1016 162.375L24.9219 163.578C24.5677 163.5 24.2552 163.461 23.9844 163.461C23.2917 163.461 22.6979 163.742 22.2031 164.305C21.7135 164.867 21.4688 165.568 21.4688 166.406V171H20.1719V162.438H21.2422L21.3906 164.023H21.4531C21.7708 163.466 22.1536 163.036 22.6016 162.734C23.0495 162.432 23.5417 162.281 24.0781 162.281ZM32.2266 168.664C32.2266 169.461 31.9297 170.076 31.3359 170.508C30.7422 170.94 29.9089 171.156 28.8359 171.156C27.7005 171.156 26.8151 170.977 26.1797 170.617V169.414C26.5911 169.622 27.0312 169.786 27.5 169.906C27.974 170.026 28.4297 170.086 28.8672 170.086C29.5443 170.086 30.0651 169.979 30.4297 169.766C30.7943 169.547 30.9766 169.216 30.9766 168.773C30.9766 168.44 30.8307 168.156 30.5391 167.922C30.2526 167.682 29.6901 167.401 28.8516 167.078C28.0547 166.781 27.487 166.523 27.1484 166.305C26.8151 166.081 26.5651 165.828 26.3984 165.547C26.237 165.266 26.1562 164.93 26.1562 164.539C26.1562 163.841 26.4401 163.292 27.0078 162.891C27.5755 162.484 28.3542 162.281 29.3438 162.281C30.2656 162.281 31.1667 162.469 32.0469 162.844L31.5859 163.898C30.7266 163.544 29.9479 163.367 29.25 163.367C28.6354 163.367 28.1719 163.464 27.8594 163.656C27.5469 163.849 27.3906 164.115 27.3906 164.453C27.3906 164.682 27.4479 164.878 27.5625 165.039C27.6823 165.201 27.8724 165.354 28.1328 165.5C28.3932 165.646 28.8932 165.857 29.6328 166.133C30.6484 166.503 31.3333 166.875 31.6875 167.25C32.0469 167.625 32.2266 168.096 32.2266 168.664ZM41.7344 166.711C41.7344 168.107 41.3828 169.198 40.6797 169.984C39.9766 170.766 39.0052 171.156 37.7656 171.156C37 171.156 36.3203 170.977 35.7266 170.617C35.1328 170.258 34.6745 169.742 34.3516 169.07C34.0286 168.398 33.8672 167.612 33.8672 166.711C33.8672 165.315 34.2161 164.229 34.9141 163.453C35.612 162.672 36.5807 162.281 37.8203 162.281C39.0182 162.281 39.9688 162.68 40.6719 163.477C41.3802 164.273 41.7344 165.352 41.7344 166.711ZM35.2109 166.711C35.2109 167.805 35.4297 168.638 35.8672 169.211C36.3047 169.784 36.9479 170.07 37.7969 170.07C38.6458 170.07 39.2891 169.786 39.7266 169.219C40.1693 168.646 40.3906 167.81 40.3906 166.711C40.3906 165.622 40.1693 164.797 39.7266 164.234C39.2891 163.667 38.6406 163.383 37.7812 163.383C36.9323 163.383 36.2917 163.661 35.8594 164.219C35.4271 164.776 35.2109 165.607 35.2109 166.711ZM49.875 171V165.461C49.875 164.763 49.7161 164.242 49.3984 163.898C49.0807 163.555 48.5833 163.383 47.9062 163.383C47.0104 163.383 46.3542 163.625 45.9375 164.109C45.5208 164.594 45.3125 165.393 45.3125 166.508V171H44.0156V162.438H45.0703L45.2812 163.609H45.3438C45.6094 163.188 45.9818 162.862 46.4609 162.633C46.9401 162.398 47.474 162.281 48.0625 162.281C49.0938 162.281 49.8698 162.531 50.3906 163.031C50.9115 163.526 51.1719 164.32 51.1719 165.414V171H49.875ZM59.1094 171L58.8516 169.781H58.7891C58.362 170.318 57.9349 170.682 57.5078 170.875C57.0859 171.062 56.5573 171.156 55.9219 171.156C55.0729 171.156 54.4062 170.938 53.9219 170.5C53.4427 170.062 53.2031 169.44 53.2031 168.633C53.2031 166.904 54.5859 165.997 57.3516 165.914L58.8047 165.867V165.336C58.8047 164.664 58.6589 164.169 58.3672 163.852C58.0807 163.529 57.6198 163.367 56.9844 163.367C56.2708 163.367 55.4635 163.586 54.5625 164.023L54.1641 163.031C54.5859 162.802 55.0469 162.622 55.5469 162.492C56.0521 162.362 56.5573 162.297 57.0625 162.297C58.0833 162.297 58.8385 162.523 59.3281 162.977C59.8229 163.43 60.0703 164.156 60.0703 165.156V171H59.1094ZM56.1797 170.086C56.987 170.086 57.6198 169.865 58.0781 169.422C58.5417 168.979 58.7734 168.359 58.7734 167.562V166.789L57.4766 166.844C56.4453 166.88 55.7005 167.042 55.2422 167.328C54.7891 167.609 54.5625 168.049 54.5625 168.648C54.5625 169.117 54.7031 169.474 54.9844 169.719C55.2708 169.964 55.6693 170.086 56.1797 170.086ZM64.0469 171H62.75V158.844H64.0469V171ZM68.0938 171H66.7969V162.438H68.0938V171ZM66.6875 160.117C66.6875 159.82 66.7604 159.604 66.9062 159.469C67.0521 159.328 67.2344 159.258 67.4531 159.258C67.6615 159.258 67.8411 159.328 67.9922 159.469C68.1432 159.609 68.2188 159.826 68.2188 160.117C68.2188 160.409 68.1432 160.628 67.9922 160.773C67.8411 160.914 67.6615 160.984 67.4531 160.984C67.2344 160.984 67.0521 160.914 66.9062 160.773C66.7604 160.628 66.6875 160.409 66.6875 160.117ZM73.6094 170.086C73.8385 170.086 74.0599 170.07 74.2734 170.039C74.487 170.003 74.6562 169.966 74.7812 169.93V170.922C74.6406 170.99 74.4323 171.044 74.1562 171.086C73.8854 171.133 73.6406 171.156 73.4219 171.156C71.7656 171.156 70.9375 170.284 70.9375 168.539V163.445H69.7109V162.82L70.9375 162.281L71.4844 160.453H72.2344V162.438H74.7188V163.445H72.2344V168.484C72.2344 169 72.3568 169.396 72.6016 169.672C72.8464 169.948 73.1823 170.086 73.6094 170.086ZM75.1406 162.438H76.5312L78.4062 167.32C78.8177 168.435 79.0729 169.24 79.1719 169.734H79.2344C79.3021 169.469 79.4427 169.016 79.6562 168.375C79.875 167.729 80.5833 165.75 81.7812 162.438H83.1719L79.4922 172.188C79.1276 173.151 78.7005 173.833 78.2109 174.234C77.7266 174.641 77.1302 174.844 76.4219 174.844C76.026 174.844 75.6354 174.799 75.25 174.711V173.672C75.5365 173.734 75.8568 173.766 76.2109 173.766C77.1016 173.766 77.737 173.266 78.1172 172.266L78.5938 171.047L75.1406 162.438ZM96.1094 166.711C96.1094 168.107 95.7578 169.198 95.0547 169.984C94.3516 170.766 93.3802 171.156 92.1406 171.156C91.375 171.156 90.6953 170.977 90.1016 170.617C89.5078 170.258 89.0495 169.742 88.7266 169.07C88.4036 168.398 88.2422 167.612 88.2422 166.711C88.2422 165.315 88.5911 164.229 89.2891 163.453C89.987 162.672 90.9557 162.281 92.1953 162.281C93.3932 162.281 94.3438 162.68 95.0469 163.477C95.7552 164.273 96.1094 165.352 96.1094 166.711ZM89.5859 166.711C89.5859 167.805 89.8047 168.638 90.2422 169.211C90.6797 169.784 91.3229 170.07 92.1719 170.07C93.0208 170.07 93.6641 169.786 94.1016 169.219C94.5443 168.646 94.7656 167.81 94.7656 166.711C94.7656 165.622 94.5443 164.797 94.1016 164.234C93.6641 163.667 93.0156 163.383 92.1562 163.383C91.3073 163.383 90.6667 163.661 90.2344 164.219C89.8021 164.776 89.5859 165.607 89.5859 166.711ZM102.25 163.445H100.07V171H98.7734V163.445H97.2422V162.859L98.7734 162.391V161.914C98.7734 159.81 99.6927 158.758 101.531 158.758C101.984 158.758 102.516 158.849 103.125 159.031L102.789 160.07C102.289 159.909 101.862 159.828 101.508 159.828C101.018 159.828 100.656 159.992 100.422 160.32C100.188 160.643 100.07 161.164 100.07 161.883V162.438H102.25V163.445ZM110.734 170.086C110.964 170.086 111.185 170.07 111.398 170.039C111.612 170.003 111.781 169.966 111.906 169.93V170.922C111.766 170.99 111.557 171.044 111.281 171.086C111.01 171.133 110.766 171.156 110.547 171.156C108.891 171.156 108.062 170.284 108.062 168.539V163.445H106.836V162.82L108.062 162.281L108.609 160.453H109.359V162.438H111.844V163.445H109.359V168.484C109.359 169 109.482 169.396 109.727 169.672C109.971 169.948 110.307 170.086 110.734 170.086ZM119.484 171V165.461C119.484 164.763 119.326 164.242 119.008 163.898C118.69 163.555 118.193 163.383 117.516 163.383C116.615 163.383 115.956 163.628 115.539 164.117C115.128 164.607 114.922 165.409 114.922 166.523V171H113.625V158.844H114.922V162.523C114.922 162.966 114.901 163.333 114.859 163.625H114.938C115.193 163.214 115.555 162.891 116.023 162.656C116.497 162.417 117.036 162.297 117.641 162.297C118.688 162.297 119.471 162.547 119.992 163.047C120.518 163.542 120.781 164.331 120.781 165.414V171H119.484ZM127.07 171.156C125.805 171.156 124.805 170.771 124.07 170C123.341 169.229 122.977 168.159 122.977 166.789C122.977 165.409 123.315 164.312 123.992 163.5C124.674 162.688 125.589 162.281 126.734 162.281C127.807 162.281 128.656 162.635 129.281 163.344C129.906 164.047 130.219 164.977 130.219 166.133V166.953H124.32C124.346 167.958 124.599 168.721 125.078 169.242C125.562 169.763 126.242 170.023 127.117 170.023C128.039 170.023 128.951 169.831 129.852 169.445V170.602C129.393 170.799 128.958 170.94 128.547 171.023C128.141 171.112 127.648 171.156 127.07 171.156ZM126.719 163.367C126.031 163.367 125.482 163.591 125.07 164.039C124.664 164.487 124.424 165.107 124.352 165.898H128.828C128.828 165.081 128.646 164.456 128.281 164.023C127.917 163.586 127.396 163.367 126.719 163.367ZM140.578 171.156C140.021 171.156 139.51 171.055 139.047 170.852C138.589 170.643 138.203 170.326 137.891 169.898H137.797C137.859 170.398 137.891 170.872 137.891 171.32V174.844H136.594V162.438H137.648L137.828 163.609H137.891C138.224 163.141 138.612 162.802 139.055 162.594C139.497 162.385 140.005 162.281 140.578 162.281C141.714 162.281 142.589 162.669 143.203 163.445C143.823 164.221 144.133 165.31 144.133 166.711C144.133 168.117 143.818 169.211 143.188 169.992C142.562 170.768 141.693 171.156 140.578 171.156ZM140.391 163.383C139.516 163.383 138.883 163.625 138.492 164.109C138.102 164.594 137.901 165.365 137.891 166.422V166.711C137.891 167.914 138.091 168.776 138.492 169.297C138.893 169.812 139.536 170.07 140.422 170.07C141.161 170.07 141.74 169.771 142.156 169.172C142.578 168.573 142.789 167.747 142.789 166.695C142.789 165.628 142.578 164.81 142.156 164.242C141.74 163.669 141.151 163.383 140.391 163.383ZM150.023 171.156C148.758 171.156 147.758 170.771 147.023 170C146.294 169.229 145.93 168.159 145.93 166.789C145.93 165.409 146.268 164.312 146.945 163.5C147.628 162.688 148.542 162.281 149.688 162.281C150.76 162.281 151.609 162.635 152.234 163.344C152.859 164.047 153.172 164.977 153.172 166.133V166.953H147.273C147.299 167.958 147.552 168.721 148.031 169.242C148.516 169.763 149.195 170.023 150.07 170.023C150.992 170.023 151.904 169.831 152.805 169.445V170.602C152.346 170.799 151.911 170.94 151.5 171.023C151.094 171.112 150.602 171.156 150.023 171.156ZM149.672 163.367C148.984 163.367 148.435 163.591 148.023 164.039C147.617 164.487 147.378 165.107 147.305 165.898H151.781C151.781 165.081 151.599 164.456 151.234 164.023C150.87 163.586 150.349 163.367 149.672 163.367ZM159.297 162.281C159.677 162.281 160.018 162.312 160.32 162.375L160.141 163.578C159.786 163.5 159.474 163.461 159.203 163.461C158.51 163.461 157.917 163.742 157.422 164.305C156.932 164.867 156.688 165.568 156.688 166.406V171H155.391V162.438H156.461L156.609 164.023H156.672C156.99 163.466 157.372 163.036 157.82 162.734C158.268 162.432 158.76 162.281 159.297 162.281ZM167.445 168.664C167.445 169.461 167.148 170.076 166.555 170.508C165.961 170.94 165.128 171.156 164.055 171.156C162.919 171.156 162.034 170.977 161.398 170.617V169.414C161.81 169.622 162.25 169.786 162.719 169.906C163.193 170.026 163.648 170.086 164.086 170.086C164.763 170.086 165.284 169.979 165.648 169.766C166.013 169.547 166.195 169.216 166.195 168.773C166.195 168.44 166.049 168.156 165.758 167.922C165.471 167.682 164.909 167.401 164.07 167.078C163.273 166.781 162.706 166.523 162.367 166.305C162.034 166.081 161.784 165.828 161.617 165.547C161.456 165.266 161.375 164.93 161.375 164.539C161.375 163.841 161.659 163.292 162.227 162.891C162.794 162.484 163.573 162.281 164.562 162.281C165.484 162.281 166.385 162.469 167.266 162.844L166.805 163.898C165.945 163.544 165.167 163.367 164.469 163.367C163.854 163.367 163.391 163.464 163.078 163.656C162.766 163.849 162.609 164.115 162.609 164.453C162.609 164.682 162.667 164.878 162.781 165.039C162.901 165.201 163.091 165.354 163.352 165.5C163.612 165.646 164.112 165.857 164.852 166.133C165.867 166.503 166.552 166.875 166.906 167.25C167.266 167.625 167.445 168.096 167.445 168.664ZM176.953 166.711C176.953 168.107 176.602 169.198 175.898 169.984C175.195 170.766 174.224 171.156 172.984 171.156C172.219 171.156 171.539 170.977 170.945 170.617C170.352 170.258 169.893 169.742 169.57 169.07C169.247 168.398 169.086 167.612 169.086 166.711C169.086 165.315 169.435 164.229 170.133 163.453C170.831 162.672 171.799 162.281 173.039 162.281C174.237 162.281 175.188 162.68 175.891 163.477C176.599 164.273 176.953 165.352 176.953 166.711ZM170.43 166.711C170.43 167.805 170.648 168.638 171.086 169.211C171.523 169.784 172.167 170.07 173.016 170.07C173.865 170.07 174.508 169.786 174.945 169.219C175.388 168.646 175.609 167.81 175.609 166.711C175.609 165.622 175.388 164.797 174.945 164.234C174.508 163.667 173.859 163.383 173 163.383C172.151 163.383 171.51 163.661 171.078 164.219C170.646 164.776 170.43 165.607 170.43 166.711ZM185.094 171V165.461C185.094 164.763 184.935 164.242 184.617 163.898C184.299 163.555 183.802 163.383 183.125 163.383C182.229 163.383 181.573 163.625 181.156 164.109C180.74 164.594 180.531 165.393 180.531 166.508V171H179.234V162.438H180.289L180.5 163.609H180.562C180.828 163.188 181.201 162.862 181.68 162.633C182.159 162.398 182.693 162.281 183.281 162.281C184.312 162.281 185.089 162.531 185.609 163.031C186.13 163.526 186.391 164.32 186.391 165.414V171H185.094ZM188.875 170.172C188.875 169.823 188.953 169.56 189.109 169.383C189.271 169.201 189.5 169.109 189.797 169.109C190.099 169.109 190.333 169.201 190.5 169.383C190.672 169.56 190.758 169.823 190.758 170.172C190.758 170.51 190.672 170.771 190.5 170.953C190.328 171.135 190.094 171.227 189.797 171.227C189.531 171.227 189.31 171.146 189.133 170.984C188.961 170.818 188.875 170.547 188.875 170.172Z" fill="#544837"/>
<path d="M4.61914 104H2.07324V88.2949H10.9355V90.4648H4.61914V95.374H10.5381V97.5547H4.61914V104ZM16.0381 104H13.5137V92.1191H16.0381V104ZM13.3633 88.9717C13.3633 88.5205 13.485 88.1732 13.7285 87.9297C13.9792 87.6862 14.3337 87.5645 14.792 87.5645C15.236 87.5645 15.5798 87.6862 15.8232 87.9297C16.0739 88.1732 16.1992 88.5205 16.1992 88.9717C16.1992 89.4014 16.0739 89.7415 15.8232 89.9922C15.5798 90.2357 15.236 90.3574 14.792 90.3574C14.3337 90.3574 13.9792 90.2357 13.7285 89.9922C13.485 89.7415 13.3633 89.4014 13.3633 88.9717ZM22.3652 104L17.8535 92.1191H20.5176L22.9346 99.0264C23.3499 100.187 23.6006 101.125 23.6865 101.841H23.7725C23.8369 101.325 24.0876 100.387 24.5244 99.0264L26.9414 92.1191H29.627L25.0938 104H22.3652ZM36.6201 104.215C34.7725 104.215 33.3258 103.678 32.2803 102.604C31.2419 101.522 30.7227 100.036 30.7227 98.1455C30.7227 96.2048 31.2061 94.6794 32.1729 93.5693C33.1396 92.4593 34.4681 91.9043 36.1582 91.9043C37.7266 91.9043 38.9655 92.3805 39.875 93.333C40.7845 94.2855 41.2393 95.596 41.2393 97.2646V98.6289H33.3223C33.3581 99.7819 33.6696 100.67 34.2568 101.293C34.8441 101.909 35.6712 102.217 36.7383 102.217C37.4401 102.217 38.0918 102.152 38.6934 102.023C39.3021 101.887 39.9538 101.665 40.6484 101.357V103.409C40.0326 103.703 39.4095 103.91 38.7793 104.032C38.1491 104.154 37.4294 104.215 36.6201 104.215ZM36.1582 93.8164C35.3561 93.8164 34.7116 94.0706 34.2246 94.5791C33.7448 95.0876 33.4583 95.8288 33.3652 96.8027H38.7578C38.7435 95.8216 38.5072 95.0804 38.0488 94.5791C37.5905 94.0706 36.9603 93.8164 36.1582 93.8164ZM57.8037 100.616C57.8037 101.776 57.3812 102.668 56.5361 103.291C55.6911 103.907 54.4808 104.215 52.9053 104.215C51.3226 104.215 50.0514 103.975 49.0918 103.495V101.314C50.4883 101.959 51.7881 102.281 52.9912 102.281C54.5452 102.281 55.3223 101.812 55.3223 100.874C55.3223 100.573 55.2363 100.323 55.0645 100.122C54.8926 99.9215 54.6097 99.7139 54.2158 99.499C53.8219 99.2842 53.2741 99.0407 52.5723 98.7686C51.2044 98.2386 50.277 97.7087 49.79 97.1787C49.3102 96.6488 49.0703 95.9613 49.0703 95.1162C49.0703 94.0993 49.4785 93.3115 50.2949 92.7529C51.1185 92.1872 52.2357 91.9043 53.6465 91.9043C55.043 91.9043 56.3643 92.1872 57.6104 92.7529L56.7939 94.6543C55.512 94.1243 54.4342 93.8594 53.5605 93.8594C52.2285 93.8594 51.5625 94.2389 51.5625 94.998C51.5625 95.3704 51.7344 95.6855 52.0781 95.9434C52.429 96.2012 53.1882 96.5557 54.3555 97.0068C55.3366 97.3864 56.0492 97.7337 56.4932 98.0488C56.9372 98.3639 57.2666 98.7292 57.4814 99.1445C57.6963 99.5527 57.8037 100.043 57.8037 100.616ZM65.7314 104.215C63.8838 104.215 62.4372 103.678 61.3916 102.604C60.3532 101.522 59.834 100.036 59.834 98.1455C59.834 96.2048 60.3174 94.6794 61.2842 93.5693C62.251 92.4593 63.5794 91.9043 65.2695 91.9043C66.8379 91.9043 68.0768 92.3805 68.9863 93.333C69.8958 94.2855 70.3506 95.596 70.3506 97.2646V98.6289H62.4336C62.4694 99.7819 62.7809 100.67 63.3682 101.293C63.9554 101.909 64.7826 102.217 65.8496 102.217C66.5514 102.217 67.2031 102.152 67.8047 102.023C68.4134 101.887 69.0651 101.665 69.7598 101.357V103.409C69.1439 103.703 68.5208 103.91 67.8906 104.032C67.2604 104.154 66.5407 104.215 65.7314 104.215ZM65.2695 93.8164C64.4674 93.8164 63.8229 94.0706 63.3359 94.5791C62.8561 95.0876 62.5697 95.8288 62.4766 96.8027H67.8691C67.8548 95.8216 67.6185 95.0804 67.1602 94.5791C66.7018 94.0706 66.0716 93.8164 65.2695 93.8164ZM78.0098 104.215C76.2122 104.215 74.8444 103.692 73.9062 102.646C72.9753 101.594 72.5098 100.086 72.5098 98.124C72.5098 96.126 72.9967 94.5898 73.9707 93.5156C74.9518 92.4414 76.3662 91.9043 78.2139 91.9043C79.4671 91.9043 80.5951 92.137 81.5977 92.6025L80.835 94.6328C79.7679 94.2174 78.887 94.0098 78.1924 94.0098C76.137 94.0098 75.1094 95.374 75.1094 98.1025C75.1094 99.4346 75.3636 100.437 75.8721 101.11C76.3877 101.776 77.1396 102.109 78.1279 102.109C79.2523 102.109 80.3158 101.83 81.3184 101.271V103.474C80.8672 103.739 80.3838 103.928 79.8682 104.043C79.3597 104.158 78.7402 104.215 78.0098 104.215ZM94.6494 98.0381C94.6494 99.9788 94.1517 101.493 93.1562 102.582C92.1608 103.671 90.7751 104.215 88.999 104.215C87.889 104.215 86.9079 103.964 86.0557 103.463C85.2035 102.962 84.5482 102.242 84.0898 101.304C83.6315 100.366 83.4023 99.277 83.4023 98.0381C83.4023 96.1117 83.8965 94.6077 84.8848 93.5264C85.873 92.445 87.266 91.9043 89.0635 91.9043C90.7822 91.9043 92.1429 92.4593 93.1455 93.5693C94.1481 94.6722 94.6494 96.1618 94.6494 98.0381ZM86.002 98.0381C86.002 100.781 87.0153 102.152 89.042 102.152C91.0472 102.152 92.0498 100.781 92.0498 98.0381C92.0498 95.3239 91.04 93.9668 89.0205 93.9668C87.9606 93.9668 87.1908 94.3177 86.7109 95.0195C86.2383 95.7214 86.002 96.7275 86.002 98.0381ZM108.013 104H105.478V96.6953C105.478 95.7786 105.291 95.0947 104.919 94.6436C104.554 94.1924 103.97 93.9668 103.168 93.9668C102.101 93.9668 101.32 94.2819 100.826 94.9121C100.332 95.5423 100.085 96.5986 100.085 98.0811V104H97.5605V92.1191H99.5371L99.8916 93.6768H100.021C100.379 93.111 100.887 92.6742 101.546 92.3662C102.205 92.0583 102.935 91.9043 103.737 91.9043C106.588 91.9043 108.013 93.3545 108.013 96.2549V104ZM115.532 104.215C114.05 104.215 112.893 103.678 112.062 102.604C111.232 101.529 110.816 100.022 110.816 98.0811C110.816 96.1331 111.235 94.6185 112.073 93.5371C112.918 92.4486 114.086 91.9043 115.575 91.9043C117.136 91.9043 118.325 92.4808 119.142 93.6338H119.271C119.149 92.7816 119.088 92.1084 119.088 91.6143V87.2852H121.623V104H119.646L119.206 102.442H119.088C118.279 103.624 117.093 104.215 115.532 104.215ZM116.209 102.174C117.247 102.174 118.003 101.884 118.476 101.304C118.948 100.716 119.192 99.7676 119.206 98.457V98.1025C119.206 96.6058 118.963 95.5423 118.476 94.9121C117.989 94.2819 117.226 93.9668 116.188 93.9668C115.299 93.9668 114.616 94.3285 114.136 95.0518C113.656 95.7679 113.416 96.792 113.416 98.124C113.416 99.4417 113.649 100.448 114.114 101.143C114.58 101.83 115.278 102.174 116.209 102.174ZM135.373 102.174C135.989 102.174 136.605 102.077 137.221 101.884V103.785C136.941 103.907 136.58 104.007 136.136 104.086C135.699 104.172 135.244 104.215 134.771 104.215C132.38 104.215 131.184 102.954 131.184 100.434V94.0312H129.562V92.9141L131.302 91.9902L132.161 89.4766H133.719V92.1191H137.103V94.0312H133.719V100.391C133.719 100.999 133.869 101.451 134.17 101.744C134.478 102.031 134.879 102.174 135.373 102.174ZM144.794 104.215C142.946 104.215 141.5 103.678 140.454 102.604C139.416 101.522 138.896 100.036 138.896 98.1455C138.896 96.2048 139.38 94.6794 140.347 93.5693C141.313 92.4593 142.642 91.9043 144.332 91.9043C145.9 91.9043 147.139 92.3805 148.049 93.333C148.958 94.2855 149.413 95.596 149.413 97.2646V98.6289H141.496C141.532 99.7819 141.843 100.67 142.431 101.293C143.018 101.909 143.845 102.217 144.912 102.217C145.614 102.217 146.266 102.152 146.867 102.023C147.476 101.887 148.128 101.665 148.822 101.357V103.409C148.206 103.703 147.583 103.91 146.953 104.032C146.323 104.154 145.603 104.215 144.794 104.215ZM144.332 93.8164C143.53 93.8164 142.885 94.0706 142.398 94.5791C141.919 95.0876 141.632 95.8288 141.539 96.8027H146.932C146.917 95.8216 146.681 95.0804 146.223 94.5791C145.764 94.0706 145.134 93.8164 144.332 93.8164ZM160.263 100.616C160.263 101.776 159.84 102.668 158.995 103.291C158.15 103.907 156.94 104.215 155.364 104.215C153.782 104.215 152.51 103.975 151.551 103.495V101.314C152.947 101.959 154.247 102.281 155.45 102.281C157.004 102.281 157.781 101.812 157.781 100.874C157.781 100.573 157.695 100.323 157.523 100.122C157.352 99.9215 157.069 99.7139 156.675 99.499C156.281 99.2842 155.733 99.0407 155.031 98.7686C153.663 98.2386 152.736 97.7087 152.249 97.1787C151.769 96.6488 151.529 95.9613 151.529 95.1162C151.529 94.0993 151.938 93.3115 152.754 92.7529C153.577 92.1872 154.695 91.9043 156.105 91.9043C157.502 91.9043 158.823 92.1872 160.069 92.7529L159.253 94.6543C157.971 94.1243 156.893 93.8594 156.02 93.8594C154.688 93.8594 154.021 94.2389 154.021 94.998C154.021 95.3704 154.193 95.6855 154.537 95.9434C154.888 96.2012 155.647 96.5557 156.814 97.0068C157.796 97.3864 158.508 97.7337 158.952 98.0488C159.396 98.3639 159.726 98.7292 159.94 99.1445C160.155 99.5527 160.263 100.043 160.263 100.616ZM167.428 102.174C168.044 102.174 168.66 102.077 169.275 101.884V103.785C168.996 103.907 168.634 104.007 168.19 104.086C167.754 104.172 167.299 104.215 166.826 104.215C164.434 104.215 163.238 102.954 163.238 100.434V94.0312H161.616V92.9141L163.356 91.9902L164.216 89.4766H165.773V92.1191H169.157V94.0312H165.773V100.391C165.773 100.999 165.924 101.451 166.225 101.744C166.533 102.031 166.934 102.174 167.428 102.174ZM179.642 100.616C179.642 101.776 179.219 102.668 178.374 103.291C177.529 103.907 176.319 104.215 174.743 104.215C173.16 104.215 171.889 103.975 170.93 103.495V101.314C172.326 101.959 173.626 102.281 174.829 102.281C176.383 102.281 177.16 101.812 177.16 100.874C177.16 100.573 177.074 100.323 176.902 100.122C176.73 99.9215 176.448 99.7139 176.054 99.499C175.66 99.2842 175.112 99.0407 174.41 98.7686C173.042 98.2386 172.115 97.7087 171.628 97.1787C171.148 96.6488 170.908 95.9613 170.908 95.1162C170.908 94.0993 171.316 93.3115 172.133 92.7529C172.956 92.1872 174.074 91.9043 175.484 91.9043C176.881 91.9043 178.202 92.1872 179.448 92.7529L178.632 94.6543C177.35 94.1243 176.272 93.8594 175.398 93.8594C174.066 93.8594 173.4 94.2389 173.4 94.998C173.4 95.3704 173.572 95.6855 173.916 95.9434C174.267 96.2012 175.026 96.5557 176.193 97.0068C177.174 97.3864 177.887 97.7337 178.331 98.0488C178.775 98.3639 179.104 98.7292 179.319 99.1445C179.534 99.5527 179.642 100.043 179.642 100.616Z" fill="#2F281E"/>
</svg>
